<svg xmlns="http://www.w3.org/2000/svg" viewBox="0 0 500 500"><g id="freepik--Plant--inject-1"><path d="M85.43,235.49s.52,65.56.52,82.87-.52,121-.52,121" style="fill:none;stroke:#263238;stroke-linecap:round;stroke-linejoin:round;stroke-width:3px"></path><polygon points="124.77 252.27 108.51 238.64 154.14 243.88 113.75 230.77 155.19 223.43 108.51 223.43 144.7 196.15 103.79 216.61 127.39 176.22 95.92 212.41 106.93 159.44 86.48 208.74 84.38 153.67 80.19 209.79 57.87 160.21 73.37 214.51 39.98 178.09 69.17 222.9 27.85 193.42 66.55 230.77 22.74 206.83 62.88 233.92 26.57 229.19 61.83 239.16 33.6 243.88 62.88 242.83 45.57 254.37 86.48 243.36 124.77 252.27" style="fill:#FDF5E6"></polygon><path d="M69.69,301.58s-1.57,13.63-.52,18.88a95.69,95.69,0,0,1,1.57,18.35c0,6.82.53,35.8.53,40.52s-.53,44.82-.53,48.5v12.58" style="fill:none;stroke:#263238;stroke-linecap:round;stroke-linejoin:round;stroke-width:3px"></path><path d="M71.27,374.09s2.1-40,4.19-45.24,3.68-3.67,4.2-10,.52-8.91,1.57-11a43.07,43.07,0,0,0,2.1-5.77l1-4.2" style="fill:none;stroke:#263238;stroke-linecap:round;stroke-linejoin:round;stroke-width:3px"></path><polygon points="108.51 315.21 92.25 301.57 137.88 306.82 97.49 293.71 138.93 286.37 92.25 286.37 128.44 259.09 87.53 279.55 111.13 239.16 79.66 275.35 90.67 222.38 70.22 271.68 68.12 216.61 63.93 272.73 47.67 221.85 57.11 277.45 28.26 236.01 52.91 285.84 15.07 261.12 50.29 293.71 11.24 277.72 46.62 296.86 9.97 293.69 45.57 302.1 20.82 307.74 46.62 305.77 29.31 317.31 70.22 306.3 108.51 315.21" style="fill:#FDF5E6"></polygon><path d="M55.33,425.55,44.1,444.27a12.35,12.35,0,0,0-1.34,9.55l5,18.59a6.19,6.19,0,0,0,6,4.59h51.14a6.19,6.19,0,0,0,6-4.59l5-18.59a12.3,12.3,0,0,0-1.34-9.55l-11.22-18.72a4.27,4.27,0,0,0-3.64-2.06H59A4.24,4.24,0,0,0,55.33,425.55Z" style="fill:#263238;stroke:#263238;stroke-linejoin:round"></path></g><g id="freepik--Shelf--inject-1"><rect x="141.07" y="133.79" width="7.98" height="11.07" style="fill:#fff;stroke:#263238;stroke-linecap:round;stroke-linejoin:round"></rect><rect x="143.38" y="125.55" width="3.6" height="8.24" style="fill:#FDF5E6;stroke:#263238;stroke-linecap:round;stroke-linejoin:round"></rect><rect x="129.49" y="133.79" width="7.98" height="11.07" style="fill:#fff;stroke:#263238;stroke-linecap:round;stroke-linejoin:round"></rect><rect x="131.8" y="125.55" width="3.6" height="8.24" style="fill:#FDF5E6;stroke:#263238;stroke-linecap:round;stroke-linejoin:round"></rect><rect x="153.55" y="133.79" width="7.98" height="11.07" style="fill:#263238;stroke:#263238;stroke-linecap:round;stroke-linejoin:round"></rect><rect x="155.87" y="125.55" width="3.6" height="8.24" style="fill:#FDF5E6;stroke:#263238;stroke-linecap:round;stroke-linejoin:round"></rect><rect x="178.4" y="133.79" width="7.98" height="11.07" style="fill:#fff;stroke:#263238;stroke-linecap:round;stroke-linejoin:round"></rect><rect x="180.72" y="125.55" width="3.6" height="8.24" style="fill:#FDF5E6;stroke:#263238;stroke-linecap:round;stroke-linejoin:round"></rect><rect x="166.82" y="133.79" width="7.98" height="11.07" style="fill:#fff;stroke:#263238;stroke-linecap:round;stroke-linejoin:round"></rect><rect x="169.14" y="125.55" width="3.6" height="8.24" style="fill:#FDF5E6;stroke:#263238;stroke-linecap:round;stroke-linejoin:round"></rect><rect x="190.88" y="133.79" width="7.98" height="11.07" style="fill:#fff;stroke:#263238;stroke-linecap:round;stroke-linejoin:round"></rect><rect x="193.2" y="125.55" width="3.6" height="8.24" style="fill:#FDF5E6;stroke:#263238;stroke-linecap:round;stroke-linejoin:round"></rect><rect x="215.73" y="133.79" width="7.98" height="11.07" style="fill:#fff;stroke:#263238;stroke-linecap:round;stroke-linejoin:round"></rect><rect x="218.05" y="125.55" width="3.6" height="8.24" style="fill:#FDF5E6;stroke:#263238;stroke-linecap:round;stroke-linejoin:round"></rect><rect x="204.15" y="133.79" width="7.98" height="11.07" style="fill:#263238;stroke:#263238;stroke-linecap:round;stroke-linejoin:round"></rect><rect x="206.47" y="125.55" width="3.6" height="8.24" style="fill:#FDF5E6;stroke:#263238;stroke-linecap:round;stroke-linejoin:round"></rect><rect x="228.22" y="133.79" width="7.98" height="11.07" style="fill:#fff;stroke:#263238;stroke-linecap:round;stroke-linejoin:round"></rect><rect x="230.53" y="125.55" width="3.6" height="8.24" style="fill:#FDF5E6;stroke:#263238;stroke-linecap:round;stroke-linejoin:round"></rect><rect x="253.07" y="133.79" width="7.98" height="11.07" style="fill:#263238;stroke:#263238;stroke-linecap:round;stroke-linejoin:round"></rect><rect x="255.38" y="125.55" width="3.6" height="8.24" style="fill:#FDF5E6;stroke:#263238;stroke-linecap:round;stroke-linejoin:round"></rect><rect x="241.49" y="133.79" width="7.98" height="11.07" style="fill:#fff;stroke:#263238;stroke-linecap:round;stroke-linejoin:round"></rect><rect x="243.8" y="125.55" width="3.6" height="8.24" style="fill:#FDF5E6;stroke:#263238;stroke-linecap:round;stroke-linejoin:round"></rect><rect x="265.55" y="133.79" width="7.98" height="11.07" style="fill:#fff;stroke:#263238;stroke-linecap:round;stroke-linejoin:round"></rect><rect x="267.87" y="125.55" width="3.6" height="8.24" style="fill:#FDF5E6;stroke:#263238;stroke-linecap:round;stroke-linejoin:round"></rect><rect x="290.4" y="133.79" width="7.98" height="11.07" style="fill:#fff;stroke:#263238;stroke-linecap:round;stroke-linejoin:round"></rect><rect x="292.72" y="125.55" width="3.6" height="8.24" style="fill:#FDF5E6;stroke:#263238;stroke-linecap:round;stroke-linejoin:round"></rect><rect x="278.82" y="133.79" width="7.98" height="11.07" style="fill:#fff;stroke:#263238;stroke-linecap:round;stroke-linejoin:round"></rect><rect x="281.14" y="125.55" width="3.6" height="8.24" style="fill:#263238;stroke:#263238;stroke-linecap:round;stroke-linejoin:round"></rect><rect x="302.88" y="133.79" width="7.98" height="11.07" style="fill:#fff;stroke:#263238;stroke-linecap:round;stroke-linejoin:round"></rect><rect x="305.2" y="125.55" width="3.6" height="8.24" style="fill:#263238;stroke:#263238;stroke-linecap:round;stroke-linejoin:round"></rect><rect x="327.73" y="133.79" width="7.98" height="11.07" style="fill:#fff;stroke:#263238;stroke-linecap:round;stroke-linejoin:round"></rect><rect x="330.05" y="125.55" width="3.6" height="8.24" style="fill:#FDF5E6;stroke:#263238;stroke-linecap:round;stroke-linejoin:round"></rect><rect x="316.15" y="133.79" width="7.98" height="11.07" style="fill:#fff;stroke:#263238;stroke-linecap:round;stroke-linejoin:round"></rect><rect x="318.47" y="125.55" width="3.6" height="8.24" style="fill:#263238;stroke:#263238;stroke-linecap:round;stroke-linejoin:round"></rect><rect x="340.22" y="133.79" width="7.98" height="11.07" style="fill:#fff;stroke:#263238;stroke-linecap:round;stroke-linejoin:round"></rect><rect x="342.53" y="125.55" width="3.6" height="8.24" style="fill:#263238;stroke:#263238;stroke-linecap:round;stroke-linejoin:round"></rect><rect x="365.07" y="133.79" width="7.98" height="11.07" style="fill:#fff;stroke:#263238;stroke-linecap:round;stroke-linejoin:round"></rect><rect x="367.38" y="125.55" width="3.6" height="8.24" style="fill:#FDF5E6;stroke:#263238;stroke-linecap:round;stroke-linejoin:round"></rect><rect x="353.49" y="133.79" width="7.98" height="11.07" style="fill:#fff;stroke:#263238;stroke-linecap:round;stroke-linejoin:round"></rect><rect x="355.8" y="125.55" width="3.6" height="8.24" style="fill:#FDF5E6;stroke:#263238;stroke-linecap:round;stroke-linejoin:round"></rect><rect x="377.55" y="133.79" width="7.98" height="11.07" style="fill:#263238;stroke:#263238;stroke-linecap:round;stroke-linejoin:round"></rect><rect x="379.87" y="125.55" width="3.6" height="8.24" style="fill:#FDF5E6;stroke:#263238;stroke-linecap:round;stroke-linejoin:round"></rect><rect x="116.41" y="143.61" width="280.47" height="4.65" style="fill:#fff;stroke:#263238;stroke-linecap:round;stroke-linejoin:round"></rect><rect x="141.07" y="102.45" width="7.98" height="11.07" style="fill:#fff;stroke:#263238;stroke-linecap:round;stroke-linejoin:round"></rect><rect x="143.38" y="94.22" width="3.6" height="8.24" style="fill:#263238;stroke:#263238;stroke-linecap:round;stroke-linejoin:round"></rect><rect x="129.49" y="102.45" width="7.98" height="11.07" style="fill:#fff;stroke:#263238;stroke-linecap:round;stroke-linejoin:round"></rect><rect x="131.8" y="94.22" width="3.6" height="8.24" style="fill:#FDF5E6;stroke:#263238;stroke-linecap:round;stroke-linejoin:round"></rect><rect x="153.55" y="102.45" width="7.98" height="11.07" style="fill:#263238;stroke:#263238;stroke-linecap:round;stroke-linejoin:round"></rect><rect x="155.87" y="94.22" width="3.6" height="8.24" style="fill:#FDF5E6;stroke:#263238;stroke-linecap:round;stroke-linejoin:round"></rect><rect x="178.4" y="102.45" width="7.98" height="11.07" style="fill:#fff;stroke:#263238;stroke-linecap:round;stroke-linejoin:round"></rect><rect x="180.72" y="94.22" width="3.6" height="8.24" style="fill:#263238;stroke:#263238;stroke-linecap:round;stroke-linejoin:round"></rect><rect x="166.82" y="102.45" width="7.98" height="11.07" style="fill:#fff;stroke:#263238;stroke-linecap:round;stroke-linejoin:round"></rect><rect x="169.14" y="94.22" width="3.6" height="8.24" style="fill:#FDF5E6;stroke:#263238;stroke-linecap:round;stroke-linejoin:round"></rect><rect x="190.88" y="102.45" width="7.98" height="11.07" style="fill:#fff;stroke:#263238;stroke-linecap:round;stroke-linejoin:round"></rect><rect x="193.2" y="94.22" width="3.6" height="8.24" style="fill:#FDF5E6;stroke:#263238;stroke-linecap:round;stroke-linejoin:round"></rect><rect x="215.73" y="102.45" width="7.98" height="11.07" style="fill:#fff;stroke:#263238;stroke-linecap:round;stroke-linejoin:round"></rect><rect x="218.05" y="94.22" width="3.6" height="8.24" style="fill:#FDF5E6;stroke:#263238;stroke-linecap:round;stroke-linejoin:round"></rect><rect x="204.15" y="102.45" width="7.98" height="11.07" style="fill:#263238;stroke:#263238;stroke-linecap:round;stroke-linejoin:round"></rect><rect x="206.47" y="94.22" width="3.6" height="8.24" style="fill:#FDF5E6;stroke:#263238;stroke-linecap:round;stroke-linejoin:round"></rect><rect x="228.22" y="102.45" width="7.98" height="11.07" style="fill:#fff;stroke:#263238;stroke-linecap:round;stroke-linejoin:round"></rect><rect x="230.53" y="94.22" width="3.6" height="8.24" style="fill:#FDF5E6;stroke:#263238;stroke-linecap:round;stroke-linejoin:round"></rect><rect x="253.07" y="102.45" width="7.98" height="11.07" style="fill:#fff;stroke:#263238;stroke-linecap:round;stroke-linejoin:round"></rect><rect x="255.38" y="94.22" width="3.6" height="8.24" style="fill:#FDF5E6;stroke:#263238;stroke-linecap:round;stroke-linejoin:round"></rect><rect x="241.49" y="102.45" width="7.98" height="11.07" style="fill:#263238;stroke:#263238;stroke-linecap:round;stroke-linejoin:round"></rect><rect x="243.8" y="94.22" width="3.6" height="8.24" style="fill:#FDF5E6;stroke:#263238;stroke-linecap:round;stroke-linejoin:round"></rect><rect x="265.55" y="102.45" width="7.98" height="11.07" style="fill:#fff;stroke:#263238;stroke-linecap:round;stroke-linejoin:round"></rect><rect x="267.87" y="94.22" width="3.6" height="8.24" style="fill:#FDF5E6;stroke:#263238;stroke-linecap:round;stroke-linejoin:round"></rect><rect x="290.4" y="102.45" width="7.98" height="11.07" style="fill:#fff;stroke:#263238;stroke-linecap:round;stroke-linejoin:round"></rect><rect x="292.72" y="94.22" width="3.6" height="8.24" style="fill:#FDF5E6;stroke:#263238;stroke-linecap:round;stroke-linejoin:round"></rect><rect x="278.82" y="102.45" width="7.98" height="11.07" style="fill:#263238;stroke:#263238;stroke-linecap:round;stroke-linejoin:round"></rect><rect x="281.14" y="94.22" width="3.6" height="8.24" style="fill:#FDF5E6;stroke:#263238;stroke-linecap:round;stroke-linejoin:round"></rect><rect x="302.88" y="102.45" width="7.98" height="11.07" style="fill:#fff;stroke:#263238;stroke-linecap:round;stroke-linejoin:round"></rect><rect x="305.2" y="94.22" width="3.6" height="8.24" style="fill:#FDF5E6;stroke:#263238;stroke-linecap:round;stroke-linejoin:round"></rect><rect x="327.73" y="102.45" width="7.98" height="11.07" style="fill:#fff;stroke:#263238;stroke-linecap:round;stroke-linejoin:round"></rect><rect x="330.05" y="94.22" width="3.6" height="8.24" style="fill:#FDF5E6;stroke:#263238;stroke-linecap:round;stroke-linejoin:round"></rect><rect x="316.15" y="102.45" width="7.98" height="11.07" style="fill:#263238;stroke:#263238;stroke-linecap:round;stroke-linejoin:round"></rect><rect x="318.47" y="94.22" width="3.6" height="8.24" style="fill:#FDF5E6;stroke:#263238;stroke-linecap:round;stroke-linejoin:round"></rect><rect x="340.22" y="102.45" width="7.98" height="11.07" style="fill:#fff;stroke:#263238;stroke-linecap:round;stroke-linejoin:round"></rect><rect x="342.53" y="94.22" width="3.6" height="8.24" style="fill:#FDF5E6;stroke:#263238;stroke-linecap:round;stroke-linejoin:round"></rect><rect x="365.07" y="102.45" width="7.98" height="11.07" style="fill:#fff;stroke:#263238;stroke-linecap:round;stroke-linejoin:round"></rect><rect x="367.38" y="94.22" width="3.6" height="8.24" style="fill:#263238;stroke:#263238;stroke-linecap:round;stroke-linejoin:round"></rect><rect x="353.49" y="102.45" width="7.98" height="11.07" style="fill:#fff;stroke:#263238;stroke-linecap:round;stroke-linejoin:round"></rect><rect x="355.8" y="94.22" width="3.6" height="8.24" style="fill:#FDF5E6;stroke:#263238;stroke-linecap:round;stroke-linejoin:round"></rect><rect x="377.55" y="102.45" width="7.98" height="11.07" style="fill:#fff;stroke:#263238;stroke-linecap:round;stroke-linejoin:round"></rect><rect x="379.87" y="94.22" width="3.6" height="8.24" style="fill:#FDF5E6;stroke:#263238;stroke-linecap:round;stroke-linejoin:round"></rect><rect x="116.41" y="112.27" width="280.47" height="4.65" style="fill:#fff;stroke:#263238;stroke-linecap:round;stroke-linejoin:round"></rect><path d="M334.67,56.24s1.85-3.49-1.85-8.83a93.56,93.56,0,0,0-8.21-10.06s7.8,2.87,10.06,5.34,4.31,5.54,4.11,4.92-3.29-6.36-6.57-12.93-6.37-12.94-6.37-12.94a98.41,98.41,0,0,0,9.24,10.47,46.28,46.28,0,0,1,8,10.68S340.83,31,340.83,25.64s1-14.37,1-14.37,3.69,9,4.52,15.6,1,14,1,14,.41-2.06,2.06-9a150.54,150.54,0,0,1,5.34-16.43s.41,7.81.2,15.61S351.51,48,351.51,48s3.08-3.5,5.54-6.78a51.26,51.26,0,0,0,3.5-5.14s-5.34,12.74-6,14.17-1.85,6.17-1.85,6.17Z" style="fill:#FDF5E6"></path><rect x="332.51" y="56.18" width="21.84" height="7.38" style="fill:#fff;stroke:#263238;stroke-linecap:round;stroke-linejoin:round"></rect><polygon points="351.71 81.52 335.15 81.52 326.87 63.58 359.99 63.58 351.71 81.52" style="fill:#fff;stroke:#263238;stroke-linecap:round;stroke-linejoin:round"></polygon><path d="M373.81,62s-3.42-4.35-3.42-7S373,56.21,373,56.21,367.45,46,367.91,41.77s4.66,7.3,4.66,7.3-1.4-23.6.93-22.82,5.28,23,5.28,24.37,2-9.78,3.57-6.52,1.55,11,1.55,11,2-11.8,3.57-7.76-1.86,14.74-1.86,14.74" style="fill:#FDF5E6"></path><rect x="370.6" y="65.53" width="18.9" height="15.68" style="fill:none;stroke:#263238;stroke-linecap:round;stroke-linejoin:round"></rect><path d="M389.65,71V62.06h-19.1V72.27a2.28,2.28,0,0,0,2.28,2.28H373a2.28,2.28,0,0,0,2.29-2.28V71h.12v1.3a2.29,2.29,0,0,0,2.29,2.28h.12a2.28,2.28,0,0,0,2.28-2.28V71h.13v1.3a2.28,2.28,0,0,0,2.28,2.28h.12a2.28,2.28,0,0,0,2.29-2.28V71H385v1.3a2.29,2.29,0,0,0,2.29,2.28h.12a2.28,2.28,0,0,0,2.28-2.28V71Z" style="fill:#fff;stroke:#263238;stroke-linecap:round;stroke-linejoin:round"></path><polygon points="181.29 56.49 173.16 81.28 190.2 81.28 189.04 56.49 181.29 56.49" style="fill:#fff;stroke:#263238;stroke-linecap:round;stroke-linejoin:round"></polygon><polygon points="214.69 33.65 174.03 33.65 185.46 81.28 226.12 81.28 214.69 33.65" style="fill:#fff;stroke:#263238;stroke-linecap:round;stroke-linejoin:round"></polygon><polygon points="209.94 41.39 182.5 41.39 190.21 73.53 217.65 73.53 209.94 41.39" style="fill:#fff;stroke:#263238;stroke-linecap:round;stroke-linejoin:round"></polygon><rect x="116.41" y="80.94" width="280.47" height="4.65" style="fill:#fff;stroke:#263238;stroke-linecap:round;stroke-linejoin:round"></rect></g><g id="freepik--Lamp--inject-1"><path d="M224.32,306.49a2.51,2.51,0,0,1-2.48-2.19L208.41,200.16a2.5,2.5,0,1,1,5-.62L226.8,303.67a2.51,2.51,0,0,1-2.17,2.8Z" style="fill:#263238"></path><path d="M211.54,204.61a1.5,1.5,0,0,1-.26-3l44.51-28.91a1.5,1.5,0,0,1,.51,3l-44.51,28.91Z" style="fill:#263238"></path><path d="M212.84,212.44a1.5,1.5,0,0,1-.25-3l44.5-28.91a1.5,1.5,0,0,1,.51,2.95l-44.5,28.92Z" style="fill:#263238"></path><polygon points="256.69 172.24 248.22 185.94 263.22 187.24 264.52 183.98 256.69 172.24" style="fill:#263238"></polygon><path d="M263.22,187.74h-.05l-15-1.3a.51.51,0,0,1-.4-.28.48.48,0,0,1,0-.48l8.48-13.7a.51.51,0,0,1,.42-.24.54.54,0,0,1,.42.22l7.83,11.74a.49.49,0,0,1,0,.47l-1.3,3.26A.5.5,0,0,1,263.22,187.74Zm-14.15-2.23,13.82,1.2L264,184l-7.25-10.87Z" style="fill:#263238"></path><path d="M292,208.13l-8.6-18.93c0-2.22-4.68-4-10.44-4s-10.44,1.79-10.44,4L254,208.13a3.85,3.85,0,0,0-1.18,2.59c0,4.3,9,7.78,20.22,7.78s20.22-3.48,20.22-7.78A3.85,3.85,0,0,0,292,208.13Z" style="fill:#263238"></path><path d="M273,219c-11.62,0-20.72-3.64-20.72-8.28a4.26,4.26,0,0,1,1.26-2.87l8.53-18.77c.13-2.51,4.79-4.39,10.93-4.39s10.79,1.88,10.93,4.39l8.53,18.77a4.26,4.26,0,0,1,1.26,2.87C293.72,215.36,284.62,219,273,219Zm0-33.31c-5.86,0-9.94,1.85-9.94,3.51a.52.52,0,0,1,0,.21l-8.6,18.92a.3.3,0,0,1-.09.13,3.39,3.39,0,0,0-1.05,2.26c0,3.95,9,7.28,19.72,7.28s19.72-3.33,19.72-7.28a3.39,3.39,0,0,0-1.05-2.26.3.3,0,0,1-.09-.13L283,189.41a.52.52,0,0,1,0-.21C282.94,187.54,278.85,185.69,273,185.69Z" style="fill:#263238"></path><polygon points="264.52 170.94 262.56 189.2 283.44 189.2 281.48 170.94 264.52 170.94" style="fill:#263238"></polygon><path d="M283.44,189.7H262.56a.5.5,0,0,1-.37-.17.47.47,0,0,1-.12-.38L264,170.88a.51.51,0,0,1,.5-.44h17a.51.51,0,0,1,.5.44l1.95,18.27a.47.47,0,0,1-.12.38A.5.5,0,0,1,283.44,189.7Zm-20.32-1h19.76L281,171.44H265Z" style="fill:#263238"></path><path d="M281.48,170.94c0,1.8-3.8,3.26-8.48,3.26s-8.48-1.46-8.48-3.26,3.8-3.26,8.48-3.26S281.48,169.14,281.48,170.94Z" style="fill:#636363"></path><path d="M273,174.7c-4.35,0-9-1.32-9-3.76s4.63-3.76,9-3.76,9,1.31,9,3.76S277.35,174.7,273,174.7Zm0-6.52c-4.7,0-8,1.45-8,2.76s3.28,2.76,8,2.76,8-1.46,8-2.76S277.7,168.18,273,168.18Z" style="fill:#263238"></path><path d="M227.24,295.77,219.3,310l4.08,2.92a6.79,6.79,0,0,0,3.94,1.26h0a6.8,6.8,0,0,0,5.3-2.55l1.31-1.63-4.18-13.38Z" style="fill:#263238"></path><path d="M227.32,314.66a7.23,7.23,0,0,1-4.23-1.36L219,310.39a.5.5,0,0,1-.15-.65l7.94-14.22a.5.5,0,0,1,.6-.23l2.51.84a.51.51,0,0,1,.32.32l4.18,13.38a.51.51,0,0,1-.09.46L233,311.93A7.26,7.26,0,0,1,227.32,314.66ZM220,309.83l3.72,2.66a6.28,6.28,0,0,0,8.56-1.19l1.14-1.42-4-12.88-1.88-.63Z" style="fill:#263238"></path><path d="M228.89,301.57a1.51,1.51,0,0,1-1.47-1.18l-9.13-41.74c-.18-.81-2.66-22.91-1.85-23.09s4.61,21.64,4.78,22.45l9.13,41.74a1.5,1.5,0,0,1-1.14,1.79Z" style="fill:#263238"></path><path d="M256,175.7a1.51,1.51,0,0,1-1.32-.79c-.11-.21-2.75-5.19-1.28-9.24a6.65,6.65,0,0,1,4-3.95,7,7,0,0,1,6,.05c3.35,1.71,4.46,6,4.5,6.19a1.5,1.5,0,0,1-2.91.73s-.83-3.17-3-4.25a4.1,4.1,0,0,0-3.49.06,3.74,3.74,0,0,0-2.3,2.19c-.84,2.31.51,5.69,1.1,6.8a1.5,1.5,0,0,1-.61,2A1.53,1.53,0,0,1,256,175.7Z" style="fill:#263238"></path></g><g id="freepik--Table--inject-1"><rect x="218.99" y="300.89" width="7.98" height="11.07" style="fill:#fff;stroke:#263238;stroke-linecap:round;stroke-linejoin:round"></rect><rect x="221.31" y="292.65" width="3.6" height="8.24" style="fill:#FDF5E6;stroke:#263238;stroke-linecap:round;stroke-linejoin:round"></rect><rect x="207.41" y="300.89" width="7.98" height="11.07" style="fill:#fff;stroke:#263238;stroke-linecap:round;stroke-linejoin:round"></rect><rect x="209.73" y="292.65" width="3.6" height="8.24" style="fill:#FDF5E6;stroke:#263238;stroke-linecap:round;stroke-linejoin:round"></rect><rect x="231.47" y="300.89" width="7.98" height="11.07" style="fill:#fff;stroke:#263238;stroke-linecap:round;stroke-linejoin:round"></rect><rect x="233.79" y="292.65" width="3.6" height="8.24" style="fill:#FDF5E6;stroke:#263238;stroke-linecap:round;stroke-linejoin:round"></rect><rect x="254.55" y="314.17" width="10" height="153.5" style="fill:#263238;stroke:#263238;stroke-linecap:round;stroke-linejoin:round"></rect><rect x="189.55" y="311.67" width="140" height="5" style="fill:#fff;stroke:#263238;stroke-linecap:round;stroke-linejoin:round"></rect><path d="M250.9,464.23,207.38,477h105l-43.52-12.77A31.9,31.9,0,0,0,250.9,464.23Z" style="fill:#fff;stroke:#263238;stroke-linecap:round;stroke-linejoin:round"></path></g><g id="freepik--Characters--inject-1"><path d="M264.42,266.77s-3.8,6.52-5.16,7.88-17.66,1.63-19,2.17-34.52,27.72-36.69,29.08a16.89,16.89,0,0,1-7.34,2.18c-4.58-.33-30.17-27.45-30.17-27.45l13.86-21.2,20.12,25s34.24-11.41,36.41-12.77,6.8-6,10.06-6.52,8.42-.82,9.78-1.36,7.07-4.08,9-3S264.42,266.77,264.42,266.77Z" style="fill:#fff;stroke:#263238;stroke-linecap:round;stroke-linejoin:round"></path><path d="M242.18,272.64s3.45-2.76,5.37-3,10.2,1,10.2,1L261.2,267" style="fill:#fff;stroke:#263238;stroke-linecap:round;stroke-linejoin:round"></path><path d="M343.86,271.4s-25.33-12-35-16.66-24-8.67-26.67-8.34-17.33,7.34-21.33,9.34-9.33,8-11.67,9c-1.05.45-.68.83,0,1.11A5.71,5.71,0,0,0,253,266c1.66-.5,2.92,0,5.91-1.22,2.16-.88,7-2.76,7-2.76s-6.68,4.09-8,4.76,2.76.71,5.42-.62c1.69-.85,4.58-3.05,8.25-4.05s8.66-5,11-7,5.66-1,5.66-1,19.67,18,22.67,20.33,13,11.67,16.67,14.67,20.33,13.33,25.33,10.67,6.67-9.34,4.33-15.34S343.86,271.4,343.86,271.4Z" style="fill:#fff;stroke:#263238;stroke-linecap:round;stroke-linejoin:round"></path><path d="M261.56,257s-8.11,5.69-9.14,6.72a26.07,26.07,0,0,0-2.07,2.42" style="fill:#fff;stroke:#263238;stroke-linecap:round;stroke-linejoin:round"></path><path d="M264.15,258.7s-5.76,4.05-7.42,4.83c-2.54,1.19-3.67,1.89-2.42,2.07" style="fill:#fff;stroke:#263238;stroke-linecap:round;stroke-linejoin:round"></path><line x1="264.15" y1="262.67" x2="268.46" y2="260.77" style="fill:#fff;stroke:#263238;stroke-linecap:round;stroke-linejoin:round"></line><path d="M343.86,271.4s-21.42-10.14-32.38-15.4l-7.1,12.75c3,2.72,5.55,4.93,6.48,5.65,3,2.34,13,11.67,16.67,14.67s20.33,13.33,25.33,10.67,6.67-9.34,4.33-15.34S343.86,271.4,343.86,271.4Z" style="fill:#263238;stroke:#263238;stroke-linecap:round;stroke-linejoin:round"></path><path d="M322.72,364a96.45,96.45,0,0,1,6,28.33c1,16.34,9.33,46,11.66,50.67s6.67,9,6.67,14-.33,19.33-.33,19.33h-3.67l-1.33-12s-6.34,1.34-8.67,5-4.36,7.48-4.36,7.48h-23s-2-2.14,3-4.14,7.66-6,9.33-8.67,9-19.67,9-20.67S304.38,386,301.05,380s-7-18.33-1.67-21.67,20-6.33,20-6.33Z" style="fill:#263238;stroke:#263238;stroke-linecap:round;stroke-linejoin:round"></path><path d="M317.72,335.33s-33.15,14-35.67,19.34c-4.59,9.7,40,92.66,40,92.66s-8.67,15.34-10.33,18-2.34,3.34-4.67,4.67-7.67,4-7,5.33,25.67,0,25.67,0l10-10.66v11.66h3s3.33-16.66,4.33-20.33-7.33-13.67-7.33-13.67-8.34-28.66-11.34-43S318.72,374,318.05,372s-1.67-4.67-1.67-4.67l19.34-5Z" style="fill:#696969;stroke:#263238;stroke-linecap:round;stroke-linejoin:round"></path><path d="M338.63,209a25.77,25.77,0,0,1,4.25,11.25A91.7,91.7,0,0,1,340.63,248c-2.75,12-6.5,14.75-4.75,26s14,31,13,33.75-4.5,3.75-5,7,2,7,2,7-26.5,12.25-29.5,13.75,16.5,29.75,16.5,29.75,11.75-4.25,36.5-5.25,41.5.5,48.75-13.25,2.5-25-.75-32.5-10.25-39.75-16-57-14.75-32.5-21-39.25-17.75-13.75-19.5-16-6.5-11.25-6.5-11.25Z" style="fill:#263238;stroke:#263238;stroke-linecap:round;stroke-linejoin:round"></path><path d="M390.7,332.57c1.1.5,2.2,1,3.3,1.57" style="fill:none;stroke:#7d7d7d;stroke-linecap:round;stroke-linejoin:round"></path><path d="M353.78,322a138.24,138.24,0,0,1,31.4,8.18" style="fill:none;stroke:#7d7d7d;stroke-linecap:round;stroke-linejoin:round"></path><path d="M362,320.08s21.48,0,38.66,7" style="fill:none;stroke:#7d7d7d;stroke-linecap:round;stroke-linejoin:round"></path><path d="M360.88,202c-1.75-2.25-6.5-11.25-6.5-11.25L338.63,209a25.77,25.77,0,0,1,4.25,11.25A91.7,91.7,0,0,1,340.63,248c-.18.8-.37,1.56-.56,2.29l6.56-1S352.38,229,360.38,222c6.92-6.05,12-6.5,14.49-9.09C368.93,208,362.19,203.68,360.88,202Z" style="fill:#fff;stroke:#263238;stroke-linecap:round;stroke-linejoin:round"></path><path d="M335.63,139.5s-15.5-.25-25.25,6.75S290.88,167,291.13,172.5s8.25,14.25,13.5,19,8,6.75,8,6.75-5.25-15.75,1.5-23.75,21-20,22.5-26.75S335.63,139.5,335.63,139.5Z" style="fill:#263238;stroke:#263238;stroke-linecap:round;stroke-linejoin:round"></path><path d="M335.15,155.23s-18.12,3-24.66,12.58-5,17.11-3.52,19.63,3,6,1.51,9.06-4.53,6-1.51,7.55a10.11,10.11,0,0,0,6.54.5s7,12.58,11.57,12.58,18.12-11.07,18.12-11.07,12.58-3,13.09-20.13S344.71,156.74,335.15,155.23Z" style="fill:#fff;stroke:#263238;stroke-linecap:round;stroke-linejoin:round"></path><path d="M313.41,190.49l.82,4.38A9.34,9.34,0,0,0,319.7,193" style="fill:none;stroke:#263238;stroke-linecap:round;stroke-linejoin:round"></path><path d="M311.22,186.12a6,6,0,0,1,7.39-2.74" style="fill:none;stroke:#263238;stroke-linecap:round;stroke-linejoin:round"></path><path d="M318.88,206.08s3.28.82,5.2-3" style="fill:none;stroke:#263238;stroke-linecap:round;stroke-linejoin:round"></path><path d="M322.38,164.5s-7.25,6.25-6,10.5,9.75,8,12.25,15,3.25,19.5,2.75,22.75-.75,5.75-.75,5.75,1.75,0,17-3.75,27.75-19,27.75-19-7.16-18.08-11.66-34.08-15.59-20.42-25.84-22.42-27.25,15.5-30.25,23.5S306.38,176,306.38,176,315.88,167,322.38,164.5Z" style="fill:#263238;stroke:#263238;stroke-linecap:round;stroke-linejoin:round"></path><path d="M360.38,231.33A36.32,36.32,0,0,0,356.05,244c-1.33,8-1.67,36-1.67,36s-4,3-4,4.33v4s-14,4.34-21.66,6.34-40.34,6-44.67,7.33-15.67,7-15.67,7-2.66,1.67-1.66,1.67h29s3.66.66,5.66-.34l5.34-2.66s18.66,1.66,25.33,2.66,23.33,2.34,34-.33,16-2.67,18.33-15,0-34.67.34-38,1-15.33,1-15.33" style="fill:#263238;stroke:#263238;stroke-linecap:round;stroke-linejoin:round"></path><path d="M385.71,254.49c.06-2.45.09-3.91.09-3.91" style="fill:none;stroke:#7d7d7d;stroke-linecap:round;stroke-linejoin:round"></path><path d="M353,312.67s24.21-2,28.11-8.59c2.56-4.34,3.77-25.86,4.31-40.25" style="fill:none;stroke:#7d7d7d;stroke-linecap:round;stroke-linejoin:round"></path><path d="M359.64,235.36s-3.91,11.32-3.91,22.25-1.17,24.6-1.17,24.6-5.23,5.61-4.18,6.12a2,2,0,0,1,1.06,1.69l-6.25.78" style="fill:none;stroke:#7d7d7d;stroke-linecap:round;stroke-linejoin:round"></path><path d="M324.05,295.63c-11.76,2.12-36.29,5.23-40,6.37-4.33,1.33-15.67,7-15.67,7s-5.77,2.7-4.77,2.7h29s6.77-.37,8.77-1.37l5.34-2.66s9.47.84,17.33,1.69Z" style="fill:#fff;stroke:#263238;stroke-linecap:round;stroke-linejoin:round"></path><path d="M267.77,311.38s12.11-5.76,14.84-6.36" style="fill:none;stroke:#263238;stroke-linecap:round;stroke-linejoin:round"></path><path d="M273.52,311.38l13-5.76" style="fill:none;stroke:#263238;stroke-linecap:round;stroke-linejoin:round"></path><path d="M279.88,311.68a77.56,77.56,0,0,0,8.18-3.33c2.12-1.21,4.24-2.12,4.24-2.12" style="fill:none;stroke:#263238;stroke-linecap:round;stroke-linejoin:round"></path><path d="M335.38,441.18l-13.71,5.39.38.76s-8.67,15.34-10.33,18-2.34,3.34-4.67,4.67-7.67,4-7,5.33,25.67,0,25.67,0l10-10.66v11.66h3s3.33-16.66,4.33-20.33-7.33-13.67-7.33-13.67Z" style="fill:#263238;stroke:#263238;stroke-linecap:round;stroke-linejoin:round"></path><path d="M197.25,358c-.08,1.1-3.69,15.53-3.77,21.76s-5.08,41.3-7.18,48.7c-2.46,8.63-5.39,18.71-10.35,31.57-1.59,4.1,4.3,6.55,9.33,8S198,470,200.86,471s14,4.68,16,2.26-8.27-7.58-12-12.25-6.63-4.88-7.33-10.44,8-34.31,14.27-45.25,10.13-38.56,10.52-44-28.12-12.31-28.12-12.31Z" style="fill:#fff;stroke:#263238;stroke-linecap:round;stroke-linejoin:round"></path><path d="M204.89,461c-3.71-4.67-6.63-4.88-7.33-10.44a7.74,7.74,0,0,1,0-1.39c-3.62.38-6.45,4.59-6.45,4.59l-11.54-3.57c-1.08,3.09-2.26,6.36-3.6,9.83-1.59,4.1,4.3,6.55,9.33,8S198,470,200.86,471s14,4.68,16,2.26S208.59,465.64,204.89,461Z" style="fill:#fff;stroke:#263238;stroke-linecap:round;stroke-linejoin:round"></path><path d="M199.72,331.67s21.39,6,28.15,9,9.57,4.73,9.23,14.62S216.71,419.22,213,430s-7.37,20.77-7.37,20.77,13,12.69,16.57,14.78,10.69,4.44,8.34,6.48-10.8,2.16-16.28,1.76-15.95-3-21.74-4.13-10.12-2.2-9.86-5.85,6.85-18.61,8.73-24.35c1.37-4.17,6.25-15.34,6.41-27.81s.93-28.21,3.68-35.73,4.94-12.49,4.94-12.49l-15.32-1.47Z" style="fill:#fff;stroke:#263238;stroke-linecap:round;stroke-linejoin:round"></path><line x1="206.41" y1="363.4" x2="218.18" y2="363.14" style="fill:#fff;stroke:#263238;stroke-linecap:round;stroke-linejoin:round"></line><path d="M222.19,465.52c-3.53-2.09-16.57-14.78-16.57-14.78s-2.4,2.77-2.58,5.32a18.61,18.61,0,0,1-.66,4s-8.9-3.31-16.55-6.18c-1.67,4.34-3.06,8.26-3.18,9.9-.26,3.65,4.07,4.7,9.86,5.85s16.26,3.74,21.74,4.13,13.93.27,16.28-1.76S225.71,467.61,222.19,465.52Z" style="fill:#fff;stroke:#263238;stroke-linecap:round;stroke-linejoin:round"></path><path d="M173.07,219.67s6.23,16.48,8.43,23.81,7.69,11.35,5.86,20.14-10.63,16.49-10.63,16.49l-9.46,39.41,37.11,12.81L194,370.43s-26.38-5.49-37.73-5.49S120,366,106.46,363.11s-22-15-22-31.14,8.79-26,13.91-32.6,16.8-26.22,16.8-26.22,2.93-24.54,2.93-33.7,3.29-21.61,8.06-28.2,12.82-8.43,19.78-8.8S168.31,208.32,173.07,219.67Z" style="fill:#6b6b6b;stroke:#263238;stroke-linecap:round;stroke-linejoin:round"></path><path d="M132.7,271.68a51.72,51.72,0,0,0,23.73-3" style="fill:none;stroke:#263238;stroke-linecap:round;stroke-linejoin:round"></path><path d="M125,270.35s1,.28,2.7.61" style="fill:none;stroke:#263238;stroke-linecap:round;stroke-linejoin:round"></path><path d="M132.85,278.62S144,279,154,274.48" style="fill:none;stroke:#263238;stroke-linecap:round;stroke-linejoin:round"></path><path d="M128.74,316.38a43,43,0,0,1,12.38-1.76c9.1.41,21.1,3.72,21.1,3.72" style="fill:none;stroke:#263238;stroke-linecap:round;stroke-linejoin:round"></path><path d="M119.19,319.58s2.26-.94,5.54-2" style="fill:none;stroke:#263238;stroke-linecap:round;stroke-linejoin:round"></path><path d="M133.26,308.83s10.34-3.31,22.76,5" style="fill:none;stroke:#263238;stroke-linecap:round;stroke-linejoin:round"></path><path d="M186.62,149.71c15.15,4.56,20.15,16.48,20.15,16.48s3.66,9.53,3.3,16.12-5.86,13.19-6.23,15.38.37,8.06.37,10.26-1.84,2.93-4,2.56a13.94,13.94,0,0,1-3.67-1.1,61.26,61.26,0,0,1-8.79,9.89c-3.29,2.75-7.21.76-10.81-2,0,0-3.84,3.79-3.84,8.91a33.61,33.61,0,0,0,1.1,8.79S161.72,223.7,157,216.37s-4.76-18.64-4.76-18.68c0-3.54,2.14-7.21,2-11-.17-6-2.42-11.62-.9-17.62a31.23,31.23,0,0,1,5.88-11.51C166,149.08,176.4,146.63,186.62,149.71Z" style="fill:#fff;stroke:#263238;stroke-linecap:round;stroke-linejoin:round"></path><path d="M173.07,210.51c-1.46-3.66-2.56-7.69-2.56-7.69s-1.1,8.79.36,13.19c.75,2.25,1.79,5.07,2.62,7.29a14.88,14.88,0,0,1,3.42-6A34.37,34.37,0,0,1,173.07,210.51Z" style="fill:#263238;stroke:#263238;stroke-linecap:round;stroke-linejoin:round"></path><path d="M200.74,195.54l-1.83,3.66s-4.4-1.83-5.13-3.3" style="fill:none;stroke:#263238;stroke-linecap:round;stroke-linejoin:round"></path><path d="M203.67,192.24s0-4.4-7.33-4.4" style="fill:none;stroke:#263238;stroke-linecap:round;stroke-linejoin:round;stroke-width:2px"></path><path d="M206.77,166.19s-5-11.92-20.15-16.48c-10.22-3.08-20.63-.63-27.43,7.81A31.23,31.23,0,0,0,153.31,169c-1.52,6,.73,11.62.9,17.62a14.56,14.56,0,0,1-.55,4.09c4.74.59,12.1-1.55,18-6.6a15.54,15.54,0,0,0,9.19.29c10.22-3.3,6.77-14.14,19.95-14.87,6.2-.35,5.41-.12,7.7,1.84C207.61,168.39,206.77,166.19,206.77,166.19Z" style="fill:#263238;stroke:#263238;stroke-linecap:round;stroke-linejoin:round"></path><path d="M174.9,185.09s-.45-7.21-5.38-6.07-7.62,7.59-6.28,13.29,8.08,4.56,8.08,4.56" style="fill:#fff;stroke:#263238;stroke-linecap:round;stroke-linejoin:round"></path><path d="M153.29,176.81S147.43,186,135,192.93s-19.78,22-19.78,29.3A15.57,15.57,0,0,0,120,233.59s1.46-8.79,5.86-13.55,10.26-9.89,10.26-9.89-1.84,7.32,6.22,11,17.58,9.52,18.68,14.28a41.53,41.53,0,0,1,1.1,8.43s6.6-9.89,4.4-22-8.43-16.48-9.89-26.37S153.29,176.81,153.29,176.81Z" style="fill:#263238;stroke:#263238;stroke-linecap:round;stroke-linejoin:round"></path><path d="M135.2,251.59s7.57,16.23,16.65,27.67,17.22,19.49,19.89,19.36,38.38-17.35,44.76-20.86S230.57,269,230.57,269s8.08-1.14,9.72-2.48,7.74-6,7.74-6,6,1.27,8.64,1.13,3.86-.77,2.39-1.27-3.33-1-3.33-1-1.27-7.15-2.68-8.39-7.78-2.16-9.67-2.33-9.25,5.85-11.71,7.85a60.94,60.94,0,0,0-6.3,6.86l-45.79,6.69s-16-31.37-17.51-33.22-7.19-8.11-15.52-8.48-9.84,6.64-9.84,6.64" style="fill:#6b6b6b;stroke:#263238;stroke-linecap:round;stroke-linejoin:round"></path><path d="M257.86,268.24a1.51,1.51,0,0,1-1.33-.81l-10.74-20.61a1.5,1.5,0,0,1,2.66-1.39L259.19,266a1.51,1.51,0,0,1-.64,2A1.53,1.53,0,0,1,257.86,268.24Z" style="fill:#fff;stroke:#263238;stroke-linecap:round;stroke-linejoin:round"></path><path d="M230.57,269s8.08-1.14,9.72-2.48,7.74-6,7.74-6,6,1.27,8.64,1.13,3.86-.77,2.39-1.27-3.33-1-3.33-1-1.27-7.15-2.68-8.39-7.78-2.16-9.67-2.33-9.25,5.85-11.71,7.85a60.94,60.94,0,0,0-6.3,6.86l-45.79,6.69a86.56,86.56,0,0,0-5.34-10.51l-26.18,14.57c1.22,1.77,2.49,3.51,3.79,5.15,9.08,11.43,17.22,19.49,19.89,19.36s38.38-17.35,44.76-20.86S230.57,269,230.57,269Z" style="fill:#fff;stroke:#263238;stroke-linecap:round;stroke-linejoin:round"></path><path d="M245.08,251.35s5.15.46,6.14,1.07S254,258,254,258" style="fill:#fff;stroke:#263238;stroke-linecap:round;stroke-linejoin:round"></path><line x1="255.73" y1="259.37" x2="248.83" y2="255.8" style="fill:#fff;stroke:#263238;stroke-linecap:round;stroke-linejoin:round"></line><path d="M350.72,373l-7.67,104h3.67s15.33-104.33,15.33-103S350.72,373,350.72,373Z" style="fill:#fff;stroke:#263238;stroke-linecap:round;stroke-linejoin:round"></path><path d="M350.72,373l-.64,8.67h10.76c.65-4.3,1.08-7,1.18-7.57C361.44,375.21,350.72,373,350.72,373Z" style="fill:#263238;stroke:#263238;stroke-linecap:round;stroke-linejoin:round"></path><path d="M425.05,373l7.67,104h-3.67s-15.33-104.33-15.33-103S425.05,373,425.05,373Z" style="fill:#fff;stroke:#263238;stroke-linecap:round;stroke-linejoin:round"></path><path d="M425.69,381.67l-.64-8.67s-10.73,2.21-11.31,1.1c.11.53.54,3.27,1.19,7.57Z" style="fill:#263238;stroke:#263238;stroke-linecap:round;stroke-linejoin:round"></path><path d="M432.72,274.33h-.33a6.67,6.67,0,0,0-6.68,6.63c-.07,12.65-.56,40.19-3.33,54-3.66,18.33-4,21.67-4,21.67S430.72,344,436.05,318s5-43.67,5-43.67l-4.67-.33Z" style="fill:#FDF5E6;stroke:#263238;stroke-linecap:round;stroke-linejoin:round"></path><path d="M438.47,274.14a6.63,6.63,0,0,0-6.36,5.87c-1.28,11.41-4.56,37.38-9.39,53.66-6.34,21.33-24,24.66-34.34,25.66-7.55.73-33.77,2.71-47.36,3.72a9,9,0,0,0-8.3,8.95h0s39.33,7.33,64.33,5.67,37.67,1.66,43.67-16,5.33-39.67,5-54.67a318.05,318.05,0,0,0-3-33Z" style="fill:#FDF5E6;stroke:#263238;stroke-linecap:round;stroke-linejoin:round"></path><path d="M164.59,373l7.66,104h-3.66s-15.34-104.33-15.34-103S164.59,373,164.59,373Z" style="fill:#fff;stroke:#263238;stroke-linecap:round;stroke-linejoin:round"></path><path d="M165.18,381l-.59-8s-10.73,2.21-11.31,1.1c.1.5.49,3,1.09,6.94Z" style="fill:#263238;stroke:#263238;stroke-linecap:round;stroke-linejoin:round"></path><path d="M90.25,373,82.59,477h3.66s15.34-104.33,15.34-103S90.25,373,90.25,373Z" style="fill:#fff;stroke:#263238;stroke-linecap:round;stroke-linejoin:round"></path><path d="M90.25,373l-.59,8h10.81c.6-3.93,1-6.44,1.09-6.94C101,375.21,90.25,373,90.25,373Z" style="fill:#263238;stroke:#263238;stroke-linecap:round;stroke-linejoin:round"></path><path d="M82.59,274.33h.33A6.67,6.67,0,0,1,89.59,281c.07,12.65.56,40.19,3.33,54,3.67,18.33,4,21.67,4,21.67S84.59,344,79.25,318s-5-43.67-5-43.67l4.67-.33Z" style="fill:#FDF5E6;stroke:#263238;stroke-linecap:round;stroke-linejoin:round"></path><path d="M76.83,274.14A6.61,6.61,0,0,1,83.19,280c1.29,11.41,4.57,37.38,9.4,53.66,6.33,21.33,24,24.66,34.33,25.66,7.55.73,33.77,2.71,47.36,3.72a9,9,0,0,1,8.31,8.95h0s-39.34,7.33-64.34,5.67-37.66,1.66-43.66-16S69.25,322,69.59,307a315,315,0,0,1,3-33Z" style="fill:#FDF5E6;stroke:#263238;stroke-linecap:round;stroke-linejoin:round"></path></g><g id="freepik--Floor--inject-1"><line x1="23" y1="477" x2="472" y2="477" style="fill:none;stroke:#263238;stroke-linecap:round;stroke-linejoin:round"></line></g></svg>