<svg xmlns="http://www.w3.org/2000/svg" viewBox="0 0 500 500"><g id="freepik--Shadow--inject-2"><ellipse id="freepik--path--inject-2" cx="250" cy="416.24" rx="193.89" ry="11.32" style="fill:#f5f5f5"></ellipse></g><g id="freepik--character-1--inject-2"><path d="M267.89,294a39.3,39.3,0,0,0-16.31-4.45L215,288.1l-9.59-56.42c-5-29.05-30.09-52.61-56.17-52.61H134.12c-26.08,0-43.21,23.56-38.27,52.61l6.63,38.95c2.45,14.41,14.92,26.1,27.86,26.1h9.28c-7.64,0-14.13,7.53-15.1,17.5l-10,102h2.38l9.92-101.61c.82-8.43,6.3-14.79,12.76-14.79h19.55c6.45,0,11.94,6.36,12.76,14.79l9.92,101.61h2.38l-10-102c-1-10-7.46-17.5-15.1-17.5h54.41c-7.64,0-14.13,7.53-15.1,17.5l-10,102h2.39l9.91-101.61c.83-8.43,6.3-14.79,12.76-14.79h19.56c6.44,0,11.93,6.36,12.75,14.79l9.92,101.61h2.38l-10-102c-1-10-7.46-17.5-15.09-17.5h34.2A1.46,1.46,0,0,0,267.89,294Z" style="fill:#FDF5E6"></path><path d="M267.89,294a39.3,39.3,0,0,0-16.31-4.45L215,288.1l-9.59-56.42c-5-29.05-30.09-52.61-56.17-52.61H134.12c-26.08,0-43.21,23.56-38.27,52.61l6.63,38.95c2.45,14.41,14.92,26.1,27.86,26.1h9.28c-7.64,0-14.13,7.53-15.1,17.5l-10,102h2.38l9.92-101.61c.82-8.43,6.3-14.79,12.76-14.79h19.55c6.45,0,11.94,6.36,12.76,14.79l9.92,101.61h2.38l-10-102c-1-10-7.46-17.5-15.1-17.5h54.41c-7.64,0-14.13,7.53-15.1,17.5l-10,102h2.39l9.91-101.61c.83-8.43,6.3-14.79,12.76-14.79h19.56c6.44,0,11.93,6.36,12.75,14.79l9.92,101.61h2.38l-10-102c-1-10-7.46-17.5-15.09-17.5h34.2A1.46,1.46,0,0,0,267.89,294Z" style="fill:#fff;opacity:0.5"></path><path d="M184.59,131.71c-2,8.27-5.47,13.71-13.23,14.62s-18.25-2-18.23-11.6c0-8.5,13.2-19.36,21-18.87S186.6,123.45,184.59,131.71Z" style="fill:#263238"></path><path d="M207.63,120c-2,8.27-5.48,13.71-13.23,14.62s-18.25-2-18.23-11.6c0-8.5,13.2-19.36,21-18.87S209.64,111.71,207.63,120Z" style="fill:#263238"></path><path d="M160.43,118.53c-3,1.81-5,6.76.38,9.56s17.57,7.66,25.08,4.73c2.87-3.86.77-6.43.77-6.43S168.89,126.66,160.43,118.53Z" style="fill:#FDF5E6"></path><path d="M211.23,397.31c-8-4.93-8.71-6.18-13.09-9.1-3.75-2.51-5.2-2.13-8.23-4.1-2.54-1.65-.92-4.06,1.63-6.4,1.28-1.18,3.75-3.81,5.72-5.77l12.2,6.38c-.3,4.15.64,10.92,4.75,14.3C218.14,395.85,214.41,399.28,211.23,397.31Z" style="fill:#263238"></path><path d="M258.54,272c-20.29-20.11-66.71-37.74-66.71-37.74l-28.11-4.56s-13.31,17.79-8.69,38.63c3.27,14.79,46.64,19.7,76.83,19.29-17.16,25.23-34.49,83.55-34.49,83.55,3,3.43,9.26,8.37,11.79,8.44,11.27-20.82,42.21-56.06,53.13-92.89A14.8,14.8,0,0,0,258.54,272Z" style="fill:#263238"></path><path d="M215.37,370.65c-1,2.08-2.62,5.75-3.62,8.66-.36,1.06-1.25,1.76-2,1.61-6.05-1.32-12.9-7.08-15-9a1.74,1.74,0,0,1-.2-1.89l3.06-8.27c.42-1.13,1.44-1.83,2.14-1.46l15.34,8.11C215.68,368.73,215.81,369.71,215.37,370.65Z" style="fill:#FDF5E6"></path><path d="M207.62,178.66l-.35,3.89-.32,4c-.19,2.66-.37,5.3-.46,7.93s-.13,5.23-.08,7.76a55.36,55.36,0,0,0,.59,7.21c.09.54.18,1.07.3,1.56,0,.27.11.48.17.71l.09.33a4.81,4.81,0,0,0-.26-.49,4.53,4.53,0,0,0-1-1.06,3.57,3.57,0,0,0-1.07-.56c-.59-.15-.64,0-.5,0a6.49,6.49,0,0,0,2.35-.19,28.26,28.26,0,0,0,3.39-.91c4.75-1.53,9.81-3.83,14.74-6l.13-.05a3.84,3.84,0,0,1,4.18,6.3,70.38,70.38,0,0,1-6.71,5.67,62.25,62.25,0,0,1-7.54,4.9,40,40,0,0,1-4.4,2.09,20.54,20.54,0,0,1-5.82,1.39,11.52,11.52,0,0,1-4.61-.59A9.49,9.49,0,0,1,197.6,221a9.59,9.59,0,0,1-2.29-2.66,10.55,10.55,0,0,1-.71-1.43l-.25-.66c-.16-.43-.34-.87-.46-1.28-.29-.84-.52-1.66-.74-2.48a57.63,57.63,0,0,1-1.53-9.34c-.3-3-.37-6-.4-8.94s.09-5.85.3-8.75c.1-1.45.21-2.9.36-4.34s.32-2.85.55-4.42a7.66,7.66,0,0,1,15.21,1.76Z" style="fill:#ffb573"></path><path d="M207.76,181.83a153.81,153.81,0,0,1-3.22,20.37c-2,9.86-4.25,19.51-8.32,35.54l-49.93-8.09c3.28-13.9,4.24-30.2.4-63.3-.89-7.67,4.89-14,12.41-13.52,2,.12,4.14.29,6.31.54,8.43.95,15.34,1.79,22.67,3.67,2.43.62,4.93,1.35,7.32,2.08C204,161.77,208.91,173,207.76,181.83Z" style="fill:#FDF5E6"></path><path d="M198.16,160.46c9.65,4,12,12.7,11.33,30.55-5.32,4.37-20.78,3.85-20.78,3.85S187.41,167.69,198.16,160.46Z" style="fill:#FDF5E6"></path><path d="M171.13,128.09c.8,7.62,1.05,21.38-4.48,25.48,0,0,7.08.08,20.28,11.53,5.24-5.4,2.4-7.86,2.4-7.86-8-3.28-7.23-9.36-5.32-14.86Z" style="fill:#ffb573"></path><path d="M184.14,162.77c-4.94-.09-7.64,7-7.64,7s-10.27-10.09-13-16.47a49.17,49.17,0,0,0,4.67-2S181.78,159.53,184.14,162.77Z" style="fill:#fff"></path><path d="M188.86,162.74s4,1.8,4.55,7.92c2.83-10.46-1.84-13.08-1.84-13.08a6.25,6.25,0,0,0-4.27-1.34A5.24,5.24,0,0,1,188.86,162.74Z" style="fill:#fff"></path><path d="M176.38,133.92l7.63,8.45a22.72,22.72,0,0,0-1,4c-3.07-1-7-5.1-7.09-8.45A11.11,11.11,0,0,1,176.38,133.92Z" style="opacity:0.2"></path><path d="M171.24,112.18c-1.6,12-2.53,17.08,2.15,24.65,7,11.38,21.82,11.45,26.91.31,4.57-10,6.42-28-4-35.61C186,94.06,172.84,100.14,171.24,112.18Z" style="fill:#ffb573"></path><path d="M169,119.13c6.48,3.14,9.83-9.52,9-11.16,7.54,2.36,16.39,1.38,15.48-2,2.37,4.7,13.69,11.25,17.51,3.61,2.62-5.25-4.76-18.24-12.53-15.88-4.59-7-22.76-8.92-26.43,1.32-16.59,3.34-15.41,15.74-11.74,17.83C154.18,118.79,163.92,126.22,169,119.13Z" style="fill:#263238"></path><path d="M187.47,120.05c-.18,1,.19,2,.82,2.11s1.28-.53,1.46-1.54-.19-1.94-.82-2.1S187.65,119.05,187.47,120.05Z" style="fill:#263238"></path><path d="M199.81,122.73c-.18,1,.19,2,.82,2.1s1.28-.53,1.46-1.53-.19-2-.82-2.1S200,121.73,199.81,122.73Z" style="fill:#263238"></path><path d="M201,121.18l2.44-.12S201.9,122.65,201,121.18Z" style="fill:#263238"></path><path d="M195.68,124a30.15,30.15,0,0,0,2.29,7.26c-1.49.92-3.54-.18-3.54-.18Z" style="fill:#ed893e"></path><path d="M190.71,132.85a9.09,9.09,0,0,0,1.62.44.27.27,0,0,0,.32-.24.32.32,0,0,0-.25-.35,8.47,8.47,0,0,1-6-4.29.28.28,0,1,0-.52.23A8.87,8.87,0,0,0,190.71,132.85Z" style="fill:#263238"></path><path d="M165.48,121a9.73,9.73,0,0,0,4.72,5.76c2.94,1.5,5-1.28,4.62-4.65-.32-3-2.24-7.47-5.42-7.54S164.52,117.85,165.48,121Z" style="fill:#ffb573"></path><path d="M187,114.53a.53.53,0,0,0,.43-.13,4.41,4.41,0,0,1,4-1,.54.54,0,0,0,.7-.38.65.65,0,0,0-.42-.76,5.46,5.46,0,0,0-5.08,1.24.6.6,0,0,0,0,.84A.58.58,0,0,0,187,114.53Z" style="fill:#263238"></path><path d="M204.9,119.07a.56.56,0,0,0,.76-.73,6.21,6.21,0,0,0-3.82-4,.55.55,0,0,0-.69.42.65.65,0,0,0,.44.75,5,5,0,0,1,3,3.19A.65.65,0,0,0,204.9,119.07Z" style="fill:#263238"></path><path d="M188.64,118.5l2.44-.11S189.56,120,188.64,118.5Z" style="fill:#263238"></path><path d="M237.75,203.37l-1.51,2.93a3.83,3.83,0,0,1-2.86,2l-5.73.83a7.14,7.14,0,0,1-6.21-2.14l-1-1c2.17-5,8.23-8.87,8.23-8.87l1.6-1.29a3.21,3.21,0,0,1,4.53.39l2.59,3.15A3.69,3.69,0,0,1,237.75,203.37Z" style="fill:#ffb573"></path><path d="M228.78,189.57l-3.53-1.35a4.38,4.38,0,0,0-4,.44l-5.53,3.66a8.19,8.19,0,0,0-3.66,6.56l-.05,1.64c5.69,2.64,13.79,1.3,13.79,1.3l2.35-.12a3.66,3.66,0,0,0,3.56-3.79l-.19-4.66A4.2,4.2,0,0,0,228.78,189.57Z" style="fill:#ffb573"></path><path d="M162,174.52l.82,1.8.89,1.91c.61,1.28,1.21,2.56,1.85,3.84,1.25,2.55,2.59,5.07,3.95,7.57s2.8,4.94,4.29,7.34,3.07,4.73,4.68,7l-1-1a1.35,1.35,0,0,0-.53-.27s0,.05.17.09a6.31,6.31,0,0,0,1.57.2,25.82,25.82,0,0,0,4.82-.38,94.39,94.39,0,0,0,10.93-2.52c3.71-1,7.44-2.23,11.18-3.47s7.49-2.56,11.17-3.85l.08,0a3.82,3.82,0,0,1,3.3,6.83c-3.52,2.22-7.06,4.19-10.7,6.1S202,209.33,198.2,211a88.81,88.81,0,0,1-12.14,4.2,39,39,0,0,1-7.07,1.2,19.37,19.37,0,0,1-4.41-.18,14.75,14.75,0,0,1-2.72-.7,12.29,12.29,0,0,1-3.14-1.75A5.29,5.29,0,0,1,168,213l-.27-.31c-2.1-2.44-4.17-4.9-6-7.5-1-1.28-1.84-2.6-2.75-3.9s-1.74-2.66-2.56-4c-1.67-2.69-3.2-5.45-4.64-8.27-.71-1.42-1.42-2.83-2.08-4.28-.32-.73-.65-1.46-1-2.2s-.6-1.46-.95-2.35a7.66,7.66,0,0,1,14.1-6Z" style="fill:#ffb573"></path><path d="M151.13,155.28c-8.32,6.3-8.43,15.32-3.26,32.42,6.25,2.88,21.08-1.51,21.08-1.51S163.36,159.57,151.13,155.28Z" style="fill:#FDF5E6"></path><path d="M250,409.12c-9.37,0-10.61-.15-15.88-.32-4.5-.16-5.58.4-9.21.32-3-.07-2.91-3-2-6.3.47-1.67,1.19-5.21,1.83-7.92l13.73-1c1.94,3.69,6.29,8.94,11.58,9.65C255.07,404.24,253.69,409.12,250,409.12Z" style="fill:#263238"></path><path d="M236.28,260.25c-19-14.93-61.88-26-61.88-26l-28.11-4.56S133,247.44,137.6,268.28c3.27,14.79,44.63,19.2,74.82,18.79-8.15,42.06,12,107.08,12,107.08,4.33,1.36,12.28,2.24,14.48,1-1.4-23.75-.85-79.49,4-118.72A17.74,17.74,0,0,0,236.28,260.25Z" style="fill:#263238"></path><path d="M239.44,384.27c.27,2.29.8,6.27,1.48,9.28.25,1.08-.13,2.15-.83,2.39-5.83,2.07-14.7.78-17.52.29a1.76,1.76,0,0,1-1.16-1.51l-1.75-8.64c-.24-1.18.26-2.32,1-2.37L238,382.53C238.69,382.48,239.31,383.24,239.44,384.27Z" style="fill:#FDF5E6"></path></g><g id="freepik--Table--inject-2"><path d="M203.86,410.09c-9.3,0-16.24-2.7-20.64-8-7.17-8.69-4.88-21.08-4.78-21.6a1.18,1.18,0,1,1,2.31.45c0,.12-2.17,11.84,4.3,19.66,3.93,4.75,10.26,7.16,18.81,7.16,11.13,0,18.3-2.83,21.92-8.64,8.82-14.16-4.66-44.27-20.49-76.52-12.54-25.56-35.9-73.13-24.54-91.36,3.15-5.06,8.69-7.62,16.47-7.62,13,0,20.76,3.78,23,11.23,3.26,10.88-6.88,25.8-12,29.19a1.18,1.18,0,1,1-1.29-2c4.08-2.69,14-16.77,11.06-26.54-1.9-6.34-8.87-9.55-20.73-9.55-7,0-11.74,2.13-14.47,6.51-10.66,17.12,12.32,63.93,24.66,89.07,16.14,32.86,29.84,63.62,20.37,78.81C223.7,406.9,215.87,410.09,203.86,410.09Z" style="fill:#FDF5E6"></path><path d="M203.86,410.09c-9.3,0-16.24-2.7-20.64-8-7.17-8.69-4.88-21.08-4.78-21.6a1.18,1.18,0,1,1,2.31.45c0,.12-2.17,11.84,4.3,19.66,3.93,4.75,10.26,7.16,18.81,7.16,11.13,0,18.3-2.83,21.92-8.64,8.82-14.16-4.66-44.27-20.49-76.52-12.54-25.56-35.9-73.13-24.54-91.36,3.15-5.06,8.69-7.62,16.47-7.62,13,0,20.76,3.78,23,11.23,3.26,10.88-6.88,25.8-12,29.19a1.18,1.18,0,1,1-1.29-2c4.08-2.69,14-16.77,11.06-26.54-1.9-6.34-8.87-9.55-20.73-9.55-7,0-11.74,2.13-14.47,6.51-10.66,17.12,12.32,63.93,24.66,89.07,16.14,32.86,29.84,63.62,20.37,78.81C223.7,406.9,215.87,410.09,203.86,410.09Z" style="fill:#fff;opacity:0.3"></path><path d="M289.86,410.09c-9.3,0-16.24-2.7-20.64-8-7.17-8.69-4.88-21.08-4.78-21.6a1.18,1.18,0,1,1,2.31.45c0,.12-2.17,11.84,4.3,19.66,3.93,4.75,10.26,7.16,18.81,7.16,11.13,0,18.3-2.83,21.92-8.64,8.82-14.16-4.66-44.27-20.49-76.52-12.54-25.56-35.9-73.13-24.54-91.36,3.15-5.06,8.69-7.62,16.47-7.62,13,0,20.76,3.78,23,11.23,3.26,10.88-6.88,25.8-12,29.19a1.18,1.18,0,1,1-1.29-2c4.08-2.69,14-16.77,11.06-26.54-1.9-6.34-8.87-9.55-20.73-9.55-7,0-11.74,2.13-14.47,6.51-10.66,17.12,12.32,63.93,24.66,89.07,16.14,32.86,29.84,63.62,20.37,78.81C309.7,406.9,301.87,410.09,289.86,410.09Z" style="fill:#FDF5E6"></path><path d="M289.86,410.09c-9.3,0-16.24-2.7-20.64-8-7.17-8.69-4.88-21.08-4.78-21.6a1.18,1.18,0,1,1,2.31.45c0,.12-2.17,11.84,4.3,19.66,3.93,4.75,10.26,7.16,18.81,7.16,11.13,0,18.3-2.83,21.92-8.64,8.82-14.16-4.66-44.27-20.49-76.52-12.54-25.56-35.9-73.13-24.54-91.36,3.15-5.06,8.69-7.62,16.47-7.62,13,0,20.76,3.78,23,11.23,3.26,10.88-6.88,25.8-12,29.19a1.18,1.18,0,1,1-1.29-2c4.08-2.69,14-16.77,11.06-26.54-1.9-6.34-8.87-9.55-20.73-9.55-7,0-11.74,2.13-14.47,6.51-10.66,17.12,12.32,63.93,24.66,89.07,16.14,32.86,29.84,63.62,20.37,78.81C309.7,406.9,301.87,410.09,289.86,410.09Z" style="fill:#fff;opacity:0.3"></path><rect x="138.11" y="219.61" width="161.86" height="5.16" style="fill:#263238"></rect><path d="M266.89,216.23a1.06,1.06,0,0,1-.46-.1,1.17,1.17,0,0,1-.62-1.55l16-37.41-35-7.35a1.18,1.18,0,0,1,.49-2.31l36.41,7.65a1.18,1.18,0,0,1,.84,1.62L268,215.52A1.2,1.2,0,0,1,266.89,216.23Z" style="fill:#FDF5E6"></path><path d="M266.89,216.23a1.06,1.06,0,0,1-.46-.1,1.17,1.17,0,0,1-.62-1.55l16-37.41-35-7.35a1.18,1.18,0,0,1,.49-2.31l36.41,7.65a1.18,1.18,0,0,1,.84,1.62L268,215.52A1.2,1.2,0,0,1,266.89,216.23Z" style="opacity:0.2"></path><path d="M242.77,168.66a4.33,4.33,0,1,0,4.33-4.32A4.33,4.33,0,0,0,242.77,168.66Z" style="fill:#FDF5E6"></path><path d="M242.77,168.66a4.33,4.33,0,1,0,4.33-4.32A4.33,4.33,0,0,0,242.77,168.66Z" style="opacity:0.2"></path><path d="M250.28,219.61h33.23l-1.27-2.75a4.11,4.11,0,0,0-3.74-2.41H255.28a4.11,4.11,0,0,0-3.74,2.41Z" style="fill:#FDF5E6"></path><path d="M215,159.3a9.39,9.39,0,0,0,3.55,4.09,12.55,12.55,0,0,0,1.19.67l.43.19c.28.13.56.26.85.37l.54.17.82.26.6.14.81.16c.26.05.52.08.78.11l.82.1.49,0c.37,0,.74,0,1.12,0h.29c.48,0,.95,0,1.43-.07l.28,0c.49-.05,1-.1,1.46-.18l.13,0c.52-.09,1.05-.19,1.57-.3h0q.79-.18,1.59-.42l.11,0c.5-.16,1-.33,1.5-.51l.19-.07c.48-.18.95-.38,1.42-.59l.27-.12c.47-.22.93-.45,1.39-.69l.26-.15c.37-.21.74-.42,1.1-.64l.44-.28c.27-.17.52-.36.79-.54l.71-.51c.41-.31.82-.63,1.21-1s.71-.64,1-1l.31-.33c.22-.22.44-.45.64-.67l.33-.38.53-.65.3-.4.47-.67c.08-.12.16-.24.23-.36.25-.4.49-.8.69-1.2.07-.13.12-.25.18-.37s.2-.43.29-.64.13-.34.2-.5l.15-.43c.07-.21.13-.42.19-.63a2.76,2.76,0,0,0,.08-.27c.07-.29.14-.58.19-.87,0-.06,0-.12,0-.17,0-.24.07-.47.09-.7s0-.17,0-.25,0-.43,0-.65v-.2c0-.27,0-.54,0-.81l0-.16c0-.22-.06-.43-.1-.65s0-.15,0-.23-.11-.45-.18-.67l0-.11a7.94,7.94,0,0,0-.31-.81l1.71,3.92a1,1,0,0,0,.07.15c.08.21.16.42.23.64v0l0,.11c0,.16.1.32.14.49l0,.18a1.89,1.89,0,0,1,.05.23c0,.07,0,.15,0,.22s0,.28.05.42a1,1,0,0,1,0,.17.13.13,0,0,1,0,.06c0,.21,0,.43,0,.65v.68a2.46,2.46,0,0,0,0,.26,2.28,2.28,0,0,0,0,.26c0,.06,0,.12,0,.18s0,.34-.07.51l0,.17v0c0,.26-.1.52-.17.78a.43.43,0,0,0,0,.05c0,.09-.06.18-.08.26s-.09.35-.15.52,0,.08,0,.12-.1.28-.16.42a2.46,2.46,0,0,1-.14.38s0,.08,0,.13c-.09.21-.19.42-.3.64s-.08.2-.13.3l0,.06c-.21.4-.44.81-.69,1.21l-.06.1c0,.08-.12.17-.18.25L248,160l-.3.39c-.17.22-.35.44-.53.65l-.33.38c-.2.23-.42.46-.64.68s-.2.22-.31.32c-.33.33-.68.65-1,1s-.65.55-1,.81l-.21.15-.72.52-.51.37-.27.17-.45.27-.45.29-.64.35-.27.15-.13.08-1,.48-.29.13-.27.12-.37.17-.91.37-.14,0-.19.07-.55.21-.88.28-.07,0-.12,0-.69.19c-.29.08-.58.16-.88.22h0c-.28.07-.57.13-.86.18s-.46.09-.7.12l-.13,0h-.07l-.94.12-.45.05-.28,0-.26,0c-.34,0-.69,0-1,.05H228c-.15,0-.29,0-.44,0l-.49,0-.32,0-.5-.07-.78-.11-.27,0-.55-.13-.59-.14c-.28-.07-.55-.16-.83-.25s-.36-.11-.53-.18-.57-.23-.86-.36l-.42-.19a12.63,12.63,0,0,1-1.19-.68,9.33,9.33,0,0,1-3.55-4.09Z" style="fill:#FDF5E6"></path><path d="M215,159.3a9.39,9.39,0,0,0,3.55,4.09,12.55,12.55,0,0,0,1.19.67l.43.19c.28.13.56.26.85.37l.54.17.82.26.6.14.81.16c.26.05.52.08.78.11l.82.1.49,0c.37,0,.74,0,1.12,0h.29c.48,0,.95,0,1.43-.07l.28,0c.49-.05,1-.1,1.46-.18l.13,0c.52-.09,1.05-.19,1.57-.3h0q.79-.18,1.59-.42l.11,0c.5-.16,1-.33,1.5-.51l.19-.07c.48-.18.95-.38,1.42-.59l.27-.12c.47-.22.93-.45,1.39-.69l.26-.15c.37-.21.74-.42,1.1-.64l.44-.28c.27-.17.52-.36.79-.54l.71-.51c.41-.31.82-.63,1.21-1s.71-.64,1-1l.31-.33c.22-.22.44-.45.64-.67l.33-.38.53-.65.3-.4.47-.67c.08-.12.16-.24.23-.36.25-.4.49-.8.69-1.2.07-.13.12-.25.18-.37s.2-.43.29-.64.13-.34.2-.5l.15-.43c.07-.21.13-.42.19-.63a2.76,2.76,0,0,0,.08-.27c.07-.29.14-.58.19-.87,0-.06,0-.12,0-.17,0-.24.07-.47.09-.7s0-.17,0-.25,0-.43,0-.65v-.2c0-.27,0-.54,0-.81l0-.16c0-.22-.06-.43-.1-.65s0-.15,0-.23-.11-.45-.18-.67l0-.11a7.94,7.94,0,0,0-.31-.81l1.71,3.92a1,1,0,0,0,.07.15c.08.21.16.42.23.64v0l0,.11c0,.16.1.32.14.49l0,.18a1.89,1.89,0,0,1,.05.23c0,.07,0,.15,0,.22s0,.28.05.42a1,1,0,0,1,0,.17.13.13,0,0,1,0,.06c0,.21,0,.43,0,.65v.68a2.46,2.46,0,0,0,0,.26,2.28,2.28,0,0,0,0,.26c0,.06,0,.12,0,.18s0,.34-.07.51l0,.17v0c0,.26-.1.52-.17.78a.43.43,0,0,0,0,.05c0,.09-.06.18-.08.26s-.09.35-.15.52,0,.08,0,.12-.1.28-.16.42a2.46,2.46,0,0,1-.14.38s0,.08,0,.13c-.09.21-.19.42-.3.64s-.08.2-.13.3l0,.06c-.21.4-.44.81-.69,1.21l-.06.1c0,.08-.12.17-.18.25L248,160l-.3.39c-.17.22-.35.44-.53.65l-.33.38c-.2.23-.42.46-.64.68s-.2.22-.31.32c-.33.33-.68.65-1,1s-.65.55-1,.81l-.21.15-.72.52-.51.37-.27.17-.45.27-.45.29-.64.35-.27.15-.13.08-1,.48-.29.13-.27.12-.37.17-.91.37-.14,0-.19.07-.55.21-.88.28-.07,0-.12,0-.69.19c-.29.08-.58.16-.88.22h0c-.28.07-.57.13-.86.18s-.46.09-.7.12l-.13,0h-.07l-.94.12-.45.05-.28,0-.26,0c-.34,0-.69,0-1,.05H228c-.15,0-.29,0-.44,0l-.49,0-.32,0-.5-.07-.78-.11-.27,0-.55-.13-.59-.14c-.28-.07-.55-.16-.83-.25s-.36-.11-.53-.18-.57-.23-.86-.36l-.42-.19a12.63,12.63,0,0,1-1.19-.68,9.33,9.33,0,0,1-3.55-4.09Z" style="opacity:0.2"></path><path d="M253.21,138.83a16.55,16.55,0,0,0-1.79-1c-.21-.11-.43-.19-.64-.29-.42-.19-.85-.38-1.29-.55-.26-.1-.53-.18-.8-.26s-.82-.27-1.25-.39l-.89-.2c-.4-.1-.81-.18-1.23-.25s-.78-.12-1.17-.17-.82-.11-1.24-.14l-.74-.05c-.55,0-1.12,0-1.68,0H240c-.71,0-1.43,0-2.15.1l-.43,0c-.73.07-1.46.15-2.2.27l-.2,0c-.79.13-1.57.28-2.36.46h0c-.8.18-1.59.4-2.39.63l-.17.05c-.76.23-1.52.49-2.27.77l-.28.1c-.72.28-1.43.58-2.14.9l-.4.18c-.7.32-1.4.67-2.09,1l-.4.22c-.56.31-1.11.63-1.65,1-.23.14-.45.27-.67.42-.4.26-.79.53-1.18.81s-.73.51-1.08.77c-.62.47-1.23,1-1.82,1.46s-1.08,1-1.58,1.46l-.47.48c-.33.34-.66.68-1,1l-.5.57c-.28.33-.54.65-.8,1l-.45.59c-.25.34-.48.69-.71,1-.12.18-.24.35-.35.53-.38.61-.73,1.21-1.05,1.82-.09.19-.17.37-.26.55-.15.33-.31.65-.44,1s-.2.5-.3.76-.16.42-.23.64-.2.63-.29.94c0,.14-.08.27-.11.41-.12.44-.21.88-.29,1.32l0,.25c-.06.35-.1.7-.14,1,0,.13,0,.26,0,.39,0,.32,0,.64,0,1v.32c0,.4,0,.81.07,1.21l0,.25c0,.32.09.65.15,1,0,.12,0,.23.07.34.08.35.17.68.27,1l0,.16c.14.42.29.83.46,1.23L206.5,163c0-.08-.07-.16-.1-.23-.13-.32-.25-.63-.35-1v0c0-.06,0-.12,0-.17-.07-.24-.15-.49-.21-.74,0-.09,0-.18-.05-.27s0-.23-.07-.34,0-.23-.07-.34-.06-.43-.09-.64l0-.24s0-.06,0-.09q0-.49-.06-1v-.46c0-.18,0-.37,0-.56s0-.27,0-.4l0-.39c0-.08,0-.17,0-.26,0-.26.07-.53.11-.79a2,2,0,0,1,0-.24.15.15,0,0,1,0-.07c.06-.39.15-.78.25-1.17a.29.29,0,0,1,0-.09c0-.13.08-.27.12-.41s.13-.51.22-.76l.06-.18c.07-.21.16-.43.24-.64s.13-.38.21-.57.06-.12.08-.19c.14-.32.29-.64.44-1,.08-.15.14-.31.21-.46l.06-.09c.31-.61.66-1.22,1-1.82l.08-.15c.09-.13.19-.26.27-.39.23-.34.46-.68.71-1l.45-.59.8-1,.5-.57c.31-.35.63-.69,1-1l.47-.48c.51-.49,1-1,1.58-1.46s1-.83,1.5-1.22l.32-.23c.35-.27.72-.52,1.08-.78s.51-.38.78-.55l.41-.26.66-.42.69-.43,1-.53.4-.23.2-.11c.48-.25,1-.5,1.45-.73l.44-.2.4-.18.56-.26c.46-.19.91-.38,1.37-.55l.22-.08.28-.1.83-.31c.44-.15.89-.3,1.33-.43l.1,0,.18,0c.34-.11.69-.21,1-.3l1.33-.34h0c.44-.11.88-.2,1.32-.28s.69-.13,1-.18l.2,0,.13,0,1.41-.19.67-.06.42,0,.39,0c.53,0,1-.06,1.56-.07h1.67l.66,0,.74,0c.16,0,.33,0,.49,0l.75.11c.39,0,.79.1,1.18.17.13,0,.27,0,.4.06s.55.13.82.19.6.13.9.21.83.25,1.24.38.54.17.8.27a13.51,13.51,0,0,1,1.29.55l.64.28a18.42,18.42,0,0,1,1.79,1,14,14,0,0,1,5.36,6.17l1.71,3.93A14,14,0,0,0,253.21,138.83Z" style="fill:#FDF5E6"></path><path d="M253.21,138.83a16.55,16.55,0,0,0-1.79-1c-.21-.11-.43-.19-.64-.29-.42-.19-.85-.38-1.29-.55-.26-.1-.53-.18-.8-.26s-.82-.27-1.25-.39l-.89-.2c-.4-.1-.81-.18-1.23-.25s-.78-.12-1.17-.17-.82-.11-1.24-.14l-.74-.05c-.55,0-1.12,0-1.68,0H240c-.71,0-1.43,0-2.15.1l-.43,0c-.73.07-1.46.15-2.2.27l-.2,0c-.79.13-1.57.28-2.36.46h0c-.8.18-1.59.4-2.39.63l-.17.05c-.76.23-1.52.49-2.27.77l-.28.1c-.72.28-1.43.58-2.14.9l-.4.18c-.7.32-1.4.67-2.09,1l-.4.22c-.56.31-1.11.63-1.65,1-.23.14-.45.27-.67.42-.4.26-.79.53-1.18.81s-.73.51-1.08.77c-.62.47-1.23,1-1.82,1.46s-1.08,1-1.58,1.46l-.47.48c-.33.34-.66.68-1,1l-.5.57c-.28.33-.54.65-.8,1l-.45.59c-.25.34-.48.69-.71,1-.12.18-.24.35-.35.53-.38.61-.73,1.21-1.05,1.82-.09.19-.17.37-.26.55-.15.33-.31.65-.44,1s-.2.5-.3.76-.16.42-.23.64-.2.63-.29.94c0,.14-.08.27-.11.41-.12.44-.21.88-.29,1.32l0,.25c-.06.35-.1.7-.14,1,0,.13,0,.26,0,.39,0,.32,0,.64,0,1v.32c0,.4,0,.81.07,1.21l0,.25c0,.32.09.65.15,1,0,.12,0,.23.07.34.08.35.17.68.27,1l0,.16c.14.42.29.83.46,1.23L206.5,163c0-.08-.07-.16-.1-.23-.13-.32-.25-.63-.35-1v0c0-.06,0-.12,0-.17-.07-.24-.15-.49-.21-.74,0-.09,0-.18-.05-.27s0-.23-.07-.34,0-.23-.07-.34-.06-.43-.09-.64l0-.24s0-.06,0-.09q0-.49-.06-1v-.46c0-.18,0-.37,0-.56s0-.27,0-.4l0-.39c0-.08,0-.17,0-.26,0-.26.07-.53.11-.79a2,2,0,0,1,0-.24.15.15,0,0,1,0-.07c.06-.39.15-.78.25-1.17a.29.29,0,0,1,0-.09c0-.13.08-.27.12-.41s.13-.51.22-.76l.06-.18c.07-.21.16-.43.24-.64s.13-.38.21-.57.06-.12.08-.19c.14-.32.29-.64.44-1,.08-.15.14-.31.21-.46l.06-.09c.31-.61.66-1.22,1-1.82l.08-.15c.09-.13.19-.26.27-.39.23-.34.46-.68.71-1l.45-.59.8-1,.5-.57c.31-.35.63-.69,1-1l.47-.48c.51-.49,1-1,1.58-1.46s1-.83,1.5-1.22l.32-.23c.35-.27.72-.52,1.08-.78s.51-.38.78-.55l.41-.26.66-.42.69-.43,1-.53.4-.23.2-.11c.48-.25,1-.5,1.45-.73l.44-.2.4-.18.56-.26c.46-.19.91-.38,1.37-.55l.22-.08.28-.1.83-.31c.44-.15.89-.3,1.33-.43l.1,0,.18,0c.34-.11.69-.21,1-.3l1.33-.34h0c.44-.11.88-.2,1.32-.28s.69-.13,1-.18l.2,0,.13,0,1.41-.19.67-.06.42,0,.39,0c.53,0,1-.06,1.56-.07h1.67l.66,0,.74,0c.16,0,.33,0,.49,0l.75.11c.39,0,.79.1,1.18.17.13,0,.27,0,.4.06s.55.13.82.19.6.13.9.21.83.25,1.24.38.54.17.8.27a13.51,13.51,0,0,1,1.29.55l.64.28a18.42,18.42,0,0,1,1.79,1,14,14,0,0,1,5.36,6.17l1.71,3.93A14,14,0,0,0,253.21,138.83Z" style="opacity:0.2"></path><path d="M216.13,144.69c-10.95,9.46-12.1,22.17-2.57,28.4s26.14,3.6,37.09-5.87,12.1-22.17,2.56-28.39S227.08,135.23,216.13,144.69Zm28.71,18.74c-7.26,6.28-18.27,8-24.6,3.88s-5.56-12.55,1.7-18.83,18.28-8,24.6-3.89,5.56,12.57-1.7,18.84" style="fill:#FDF5E6"></path><path d="M250.55,165.73c5.46-5,8.34-10.94,7.9-16.37a12.34,12.34,0,0,0-5.89-9.55c-9.1-5.94-25.1-3.35-35.66,5.77l-.67.6c-5.46,5-8.34,10.95-7.9,16.38a12.33,12.33,0,0,0,5.88,9.54c9.11,5.94,25.11,3.36,35.67-5.77Zm-29.38-18.14c7.62-6.59,19.29-8.38,26-4a10.23,10.23,0,0,1,4.79,7.82c.34,4.21-1.8,8.76-5.87,12.47l-.49.43c-7.62,6.59-19.29,8.37-26,4a10.22,10.22,0,0,1-4.79-7.81c-.34-4.21,1.8-8.76,5.88-12.47C220.84,147.87,221,147.73,221.17,147.59Z" style="fill:#fff;opacity:0.5"></path><path d="M249.76,164.86c5.18-4.73,7.92-10.34,7.52-15.41a11.2,11.2,0,0,0-5.36-8.65c-8.7-5.67-24.06-3.13-34.25,5.67l-.64.58c-5.19,4.73-7.94,10.35-7.53,15.42a11.21,11.21,0,0,0,5.35,8.64c8.7,5.68,24.07,3.13,34.26-5.67ZM220.4,146.69c8-6.9,20.29-8.73,27.43-4.08a11.41,11.41,0,0,1,5.32,8.72c.37,4.58-1.91,9.47-6.26,13.43-.16.16-.33.31-.5.45-8,6.91-20.3,8.74-27.44,4.08a11.33,11.33,0,0,1-5.31-8.71c-.37-4.58,1.91-9.47,6.25-13.44Z" style="fill:#fff"></path></g><g id="freepik--character-2--inject-2"><polygon points="233.49 395.42 220.69 394.21 229.32 362.67 242.12 363.88 233.49 395.42" style="fill:#ce7a63"></polygon><path d="M205,403.17c7.78-2.47,7.46-5.91,15.13-12.42a5.14,5.14,0,0,1,2.78-1.34l12.73-1.14a1,1,0,0,1,1,.86l2,8.79c.69,3-1.14,6-3.77,6.18-4.25.25-9.45.51-14.08.93-6.75.61-6.75,4-14.71,3.81C201.28,408.71,202.36,404,205,403.17Z" style="fill:#263238"></path><path d="M309.82,256.66s-72.06-2.17-72.67,23.36c-1,42.22-14,102.62-14,102.62L237.4,384s21.49-48.12,27.17-89.37c25.67,1.67,49.34.52,68.29.52,21.25,0,23-23.33,2.32-50.55C322.54,244.56,309.82,256.66,309.82,256.66Z" style="fill:#FDF5E6"></path><path d="M309.82,256.66s-72.06-2.17-72.67,23.36c-1,42.22-14,102.62-14,102.62L237.4,384s21.49-48.12,27.17-89.37c25.67,1.67,49.34.52,68.29.52,21.25,0,23-23.33,2.32-50.55C322.54,244.56,309.82,256.66,309.82,256.66Z" style="opacity:0.4"></path><polygon points="221.82 383.53 238.05 385.41 241.7 376.21 223.2 370.31 221.82 383.53" style="fill:#FDF5E6"></polygon><path d="M334.38,133.28c-1.32,8-2.43,22.53,3.27,27.66,0,0-13.92,7.28-23,20-9.76-7.73-1.59-19.27-1.59-19.27,8.77-2.37,8.35-8.92,6.63-15Z" style="fill:#ce7a63"></path><path d="M339,187.8c-2.26,2.76-4.52,5.23-6.87,7.76s-4.76,4.94-7.24,7.33a115.55,115.55,0,0,1-16.42,13.28c-.77.5-1.56,1-2.37,1.45-.4.24-.82.46-1.24.69l-.63.34s-.44.24-.76.38a8.38,8.38,0,0,1-1,.35,9.75,9.75,0,0,1-3.13.39,14.56,14.56,0,0,1-2.22-.28,19.77,19.77,0,0,1-3.3-1.05,52.38,52.38,0,0,1-9.66-5.52,123.74,123.74,0,0,1-15.78-13.26l4.12-5.25c5.65,3.31,11.4,6.67,17.06,9.57,1.41.72,2.83,1.4,4.21,2a29.59,29.59,0,0,0,4,1.49,8.43,8.43,0,0,0,1.51.3c.16,0,.28,0,.26,0a1.38,1.38,0,0,0-.67.07,2.73,2.73,0,0,0-.39.14c-.13,0-.38.19-.21.09l.46-.29c.3-.2.6-.38.9-.6.61-.4,1.21-.83,1.82-1.28a128.83,128.83,0,0,0,14.05-12.58c2.28-2.28,4.49-4.65,6.72-7s4.4-4.84,6.46-7.16Z" style="fill:#ce7a63"></path><path d="M341.31,164.21c-11.52,3.31-22,21.36-22,21.36l16.07,12.2s16.21-8.92,15.93-16.3C351,173.78,347.54,162.42,341.31,164.21Z" style="fill:#FDF5E6"></path><path d="M257.61,187.5l5.8.06a6.52,6.52,0,0,1,4,1.41l4.39,3.4a15,15,0,0,1,5.48,8.71h0c-3.33,4-11-.11-11-.11l-7-.77a2.78,2.78,0,0,1-2.39-2l-2-7.12A2.8,2.8,0,0,1,257.61,187.5Z" style="fill:#ce7a63"></path><path d="M289.6,182.56c.85,11.53,3.41,30.94,9.73,63.61l54.23-1.61c-1.42-20,.73-34.95,5.63-70a11.38,11.38,0,0,0-10.12-12.9c-3.48-.36-7.44-.66-11.42-.73-9.14-.17-16.63-.24-24.63.73-2.64.32-5.37.74-8,1.18A18.62,18.62,0,0,0,289.6,182.56Z" style="fill:#FDF5E6"></path><path d="M340.9,162.54c-3.59-6.32,5-7.77-4.53-7.82s-23.6-5-24.49.05-7.93,5.19-6.11,8c7.1-1.36,8.27-1.35,16.14,1.29S343.36,166.87,340.9,162.54Z" style="fill:#FDF5E6"></path><path d="M340.9,162.54c-3.59-6.32,5-7.77-4.53-7.82s-23.6-5-24.49.05-7.93,5.19-6.11,8c7.1-1.36,8.27-1.35,16.14,1.29S343.36,166.87,340.9,162.54Z" style="fill:#fff;opacity:0.4"></path><ellipse cx="308.1" cy="116.79" rx="1.95" ry="1.28" transform="translate(102.42 374.2) rotate(-72.13)" style="fill:#263238"></ellipse><path d="M309,115.08l-2.23-1.5S307.39,115.91,309,115.08Z" style="fill:#263238"></path><path d="M308.64,118.74s-3.17,3.85-5.77,5.37c.95,1.7,3.44,1.86,3.44,1.86Z" style="fill:#ba4d3c"></path><path d="M311,108a.65.65,0,0,1,.08-.63.63.63,0,0,1,.88-.13,6.31,6.31,0,0,1,2.68,5.12.64.64,0,1,1-1.27-.07h0a5,5,0,0,0-2.16-4A.75.75,0,0,1,311,108Z" style="fill:#263238"></path><path d="M345.59,124c-4.83,12.35-6.62,17.68-15.06,22.09-12.71,6.64-26.81-2-25.77-15.53.95-12.19,8.69-30.34,22.64-31.37A18.08,18.08,0,0,1,345.59,124Z" style="fill:#ce7a63"></path><path d="M319.68,109.58c-7.64,1.08-7.33,10.41-4.79,12C322.58,117.66,323.85,112.46,319.68,109.58Z" style="fill:#263238"></path><path d="M320.31,97.08c-12.93,5.83,4.27,30.42-6.07,36.2a8.53,8.53,0,0,1-11.37-2.12s-2,6,2.12,9.54c4.73,4.08,11.58,3,11.58,3s18,11.63,27.74,5.83c18.56-11.07,11.94-28.33,7.54-30.36C357.3,113.61,345.62,91.18,320.31,97.08Z" style="fill:#263238"></path><path d="M310.46,134.82c-5.45,0-6.82-5.59-6.84-5.65a.3.3,0,0,1,.58-.13c.06.26,1.59,6.44,8.2,5,3.34-.75,4.86-5.55,4.14-9.38a.3.3,0,1,1,.58-.11c.68,3.63-.53,9.15-4.59,10.06A9.32,9.32,0,0,1,310.46,134.82Z" style="fill:#263238"></path><path d="M321.24,123.72a10.4,10.4,0,0,1-6,5.16c-3.48,1.1-5.34-2-4.48-5.32.77-3,3.51-7.22,7-6.86S322.74,120.7,321.24,123.72Z" style="fill:#ce7a63"></path><path d="M312.47,139.44c-2.55,0-4.62-2.77-4.62-6.16s2.07-6.16,4.62-6.16,4.62,2.76,4.62,6.16S315,139.44,312.47,139.44Zm0-11.81c-2.27,0-4.11,2.53-4.11,5.65s1.84,5.65,4.11,5.65,4.11-2.54,4.11-5.65S314.73,127.63,312.47,127.63Z" style="fill:#fff"></path><polygon points="185.84 354.85 177.16 347.31 191.68 325.26 202.54 335.55 185.84 354.85" style="fill:#ce7a63"></polygon><path d="M179.49,342.64l10.34,9.59a1.16,1.16,0,0,1,.18,1.47l-5,7.59c-1.71,2.63-5.16,2.75-7.64.83-3.39-2.62-5.29-7.22-9.31-11-5.84-5.48-6.89-5.33-10.52-13-2.45-5.15,2.9-5.17,4.78-3.58,4.74,4,2.88,4.19,13.9,6.53A6.64,6.64,0,0,1,179.49,342.64Z" style="fill:#263238"></path><path d="M318.24,245.22s-87.8-13-96.89,9.52C205.53,293.9,182.64,338,182.64,338L193,347.48s39.32-35.23,52.94-74.57c16.26,5.26,68,22.2,87,22.2,20.25,0,28.52-17.26,21.2-45.92a5.76,5.76,0,0,0-5.61-4.32C335.7,244.94,318.24,245.22,318.24,245.22Z" style="fill:#FDF5E6"></path><path d="M318.24,245.22s-87.8-13-96.89,9.52C205.53,293.9,182.64,338,182.64,338L193,347.48s39.32-35.23,52.94-74.57c16.26,5.26,68,22.2,87,22.2,20.25,0,28.52-17.26,21.2-45.92a5.76,5.76,0,0,0-5.61-4.32C335.7,244.94,318.24,245.22,318.24,245.22Z" style="opacity:0.30000000000000004"></path><polygon points="181.2 337.78 193.2 348.86 200.68 342.63 187.17 325.84 181.2 337.78" style="fill:#FDF5E6"></polygon><path d="M354.28,241.35l1.53,4.81c.2.37-.23.77-.86.79l-55.82,1.66c-.49,0-.9-.21-.94-.52l-.63-4.84c-.05-.34.37-.63.9-.65L353.38,241A1,1,0,0,1,354.28,241.35Z" style="fill:#fff"></path><path d="M299.93,185.57l-.44,1.31-.43,1.19c-.29.78-.61,1.54-.93,2.3q-1,2.28-2,4.5a72.48,72.48,0,0,1-5,8.62,54.32,54.32,0,0,1-6.47,8,37.89,37.89,0,0,1-8.52,6.65l-.61.35-.31.16-.15.09-.42.21a9,9,0,0,1-3.25.84,12.84,12.84,0,0,1-4.13-.45,27.83,27.83,0,0,1-5.32-2.17,69.2,69.2,0,0,1-8.33-5.25,125,125,0,0,1-14.3-12.22l4.12-5.25c5.19,3,10.4,6.1,15.59,8.8a76.52,76.52,0,0,0,7.65,3.59,15.22,15.22,0,0,0,3.26.94c.38.07.68,0,.4,0a2.44,2.44,0,0,0-1.06.27l-.16.08.09-.06.18-.13.37-.25a22.8,22.8,0,0,0,2.82-2.27,31.17,31.17,0,0,0,2.65-2.73c.86-1,1.66-2,2.45-3.1s1.54-2.21,2.26-3.37a82,82,0,0,0,4-7.28c.62-1.25,1.2-2.53,1.74-3.81l.8-1.93.38-.95.32-.84Z" style="fill:#ce7a63"></path><path d="M301,164.21c-11.52,3.31-19.46,23.3-19.46,23.3L294.86,201s15-12.2,16.14-19.5C312.47,172.11,307.24,162.42,301,164.21Z" style="fill:#FDF5E6"></path><path d="M228.49,187.5l5.8.06a6.52,6.52,0,0,1,4,1.41l4.39,3.4a15,15,0,0,1,5.48,8.71h0c-3.33,4-11-.11-11-.11l-7-.77a2.78,2.78,0,0,1-2.39-2l-2-7.12A2.8,2.8,0,0,1,228.49,187.5Z" style="fill:#ce7a63"></path><path d="M248.42,289.55l36.63-1.45,9.59-56.42c4.95-29.05,30.09-52.61,56.17-52.61h15.07c26.08,0,43.21,23.56,38.27,52.61l-6.63,38.95c-2.45,14.41-14.92,26.1-27.86,26.1h-137a1.46,1.46,0,0,1-.55-2.73A39.3,39.3,0,0,1,248.42,289.55Z" style="fill:#263238"></path><path d="M241.81,416.24h2.38l9.92-101.61c.82-8.43,6.31-14.79,12.76-14.79h19.55c6.46,0,11.93,6.36,12.76,14.79l9.91,101.61h2.39l-10-102c-1-10-7.46-17.5-15.1-17.5H266.87c-7.64,0-14.13,7.53-15.1,17.5Z" style="fill:#263238"></path><path d="M315.77,416.24h2.38l9.92-101.61c.83-8.43,6.31-14.79,12.76-14.79h19.55c6.46,0,11.94,6.36,12.76,14.79l9.92,101.61h2.38l-10-102c-1-10-7.46-17.5-15.1-17.5H340.83c-7.64,0-14.13,7.53-15.1,17.5Z" style="fill:#263238"></path></g></svg>