<svg width="190" height="190" xmlns="http://www.w3.org/2000/svg">
 <!-- Created with Method Draw - http://github.com/duopixel/Method-Draw/ -->
 <g>
  <title>background</title>
  <rect fill="none" id="canvas_background" height="192" width="192" y="-1" x="-1"/>
  <g display="none" overflow="visible" y="0" x="0" height="100%" width="100%" id="canvasGrid">
   <rect fill="url(#gridpattern)" stroke-width="0" y="0" x="0" height="100%" width="100%"/>
  </g>
 </g>
 <g>
  <title>Layer 1</title>
  <rect stroke="null" rx="8" id="svg_7" height="40.512817" width="176.923068" y="141.179482" x="7.051282" stroke-width="0" fill="#f7f6f6"/>
  <rect stroke="null" transform="rotate(-45 95.26245117187501,95.62863159179688) " rx="8" id="svg_11" height="130" width="130" y="30.628636" x="30.262362" stroke-opacity="null" stroke-width="0" fill="#62918b"/>
  <rect rx="8" stroke="null" id="svg_5" height="125.128208" width="141.025634" y="35.025641" x="25.174744" stroke-width="0" fill="#f7f6f6"/>
  <path transform="rotate(90 40.48846435546873,138.7314147949219) " id="svg_3" d="m-4.383335,173.090381l44.871795,-68.717946l44.871795,68.717946l-89.74359,0z" stroke-width="0" fill="#91bfb9"/>
  <path stroke="#000" id="svg_2" d="m5.563977,184.372471l90,-58.974346l90,58.974346l-180,0z" stroke-width="0" fill="#86b7b1"/>
  <path transform="rotate(-90 149.9229431152344,138.2185821533203) " id="svg_4" d="m105.051149,172.577559l44.8718,-68.71794l44.87179,68.71794l-89.74359,0z" stroke-width="0" fill="#74a59f"/>
  <path d="m85.692307,106.666664c0.512825,0 1.032265,0.082146 1.538467,0c1.600739,-0.259766 2.513321,-3.026138 5.128204,-5.641022c1.307442,-1.307442 2.406342,-2.262009 4.102562,-4.615387c2.011459,-2.790756 2.159836,-4.468781 3.589745,-5.641022c1.682571,-1.379379 2.051277,-2.051285 2.564102,-2.051285c0.512817,0 1.025642,0 2.051277,0c1.538467,0 3.263641,-0.446121 6.153847,1.025642c3.931107,2.001816 6.396057,4.85759 8.717949,7.179489c2.321892,2.321892 3.665512,3.560715 4.615387,6.153839c0.557793,1.522736 1.496208,3.275322 2.051277,4.615387c0.588745,1.421356 0,2.564102 0,3.589745c0,0.512817 0,1.025642 0,2.051285l0,0.512817" id="svg_8" stroke-width="0" fill="none"/>
  <path transform="translate(191.50738525390625,121.91814422607422) scale(0.004999999888241291) translate(-191.50738525390625,-121.91814422607422) " id="svg_18" opacity="0.5" fill-opacity="null" stroke-opacity="null" stroke-width="0" stroke="null" fill="#f7f6f6"/>
  <path transform="translate(191.2333984375,154.52098083496094) scale(0.004999999888241291) translate(-191.2333984375,-154.52098083496094) " id="svg_19" opacity="0.5" fill-opacity="null" stroke-opacity="null" stroke-width="0" stroke="null" fill="#f7f6f6"/>
  <path transform="translate(203.28823852539062,169.04156494140625) scale(0.004999999888241291) translate(-203.28823852539062,-169.04156494140625) " id="svg_20" opacity="0.5" fill-opacity="null" stroke-opacity="null" stroke-width="0" stroke="null" fill="#f7f6f6"/>
  <path transform="translate(192.603271484375,154.52098083496094) scale(0.004999999888241291) translate(-192.603271484375,-154.52098083496094) " id="svg_21" opacity="0.5" fill-opacity="null" stroke-opacity="null" stroke-width="0" stroke="null" fill="#f7f6f6"/>
  <path transform="translate(192.603271484375,137.5346221923828) scale(0.004999999888241291) translate(-192.603271484375,-137.5346221923828) " id="svg_22" opacity="0.5" fill-opacity="null" stroke-opacity="null" stroke-width="0" stroke="null" fill="#f7f6f6"/>
  <path transform="translate(190.13751220703125,158.35659790039062) scale(0.004999999888241291) translate(-190.13751220703125,-158.35659790039062) " id="svg_23" opacity="0.5" fill-opacity="null" stroke-opacity="null" stroke-width="0" stroke="null" fill="#f7f6f6"/>
  <path transform="translate(190.13751220703125,158.35659790039062) scale(0.004999999888241291) translate(-190.13751220703125,-158.35659790039062) " id="svg_24" opacity="0.5" fill-opacity="null" stroke-opacity="null" stroke-width="0" stroke="null" fill="#f7f6f6"/>
  <path transform="translate(183.28817749023438,153.42507934570312) scale(0.004999999888241291) translate(-183.28817749023438,-153.42507934570312) " id="svg_25" opacity="0.5" fill-opacity="null" stroke-opacity="null" stroke-width="0" stroke="null" fill="#f7f6f6"/>
  <path transform="translate(194.52108764648438,173.42514038085938) scale(0.004999999888241291) translate(-194.52108764648438,-173.42514038085938) " id="svg_26" opacity="0.5" fill-opacity="null" stroke-opacity="null" stroke-width="0" stroke="null" fill="#f7f6f6"/>
  <path transform="translate(88.49339294433594,157.80865478515625) scale(0.004999999888241291) translate(-88.49339294433594,-157.80865478515625) " id="svg_27" opacity="0.5" fill-opacity="null" stroke-opacity="null" stroke-width="0" stroke="null" fill="#f7f6f6"/>
  <path transform="translate(162.46620178222656,161.9182586669922) scale(0.004999999888241291) translate(-162.46620178222656,-161.9182586669922) " id="svg_28" opacity="0.5" fill-opacity="null" stroke-opacity="null" stroke-width="0" stroke="null" fill="#f7f6f6"/>
  <path transform="translate(156.43878173828125,158.35659790039062) scale(0.004999999888241291) translate(-156.43878173828125,-158.35659790039062) " id="svg_29" opacity="0.5" fill-opacity="null" stroke-opacity="null" stroke-width="0" stroke="null" fill="#f7f6f6"/>
  <text xml:space="preserve" text-anchor="start" font-family="Euphoria, sans-serif" font-size="18" id="svg_31" y="107.72414" x="69.11089" stroke-width="0" stroke="null" fill="#b3b3b3">RESET</text>
  <g id="svg_32">
   <rect stroke="null" rx="8" id="svg_14" height="26" width="18.082244" y="54.252498" x="87.239264" stroke-opacity="null" stroke-width="0" fill="#b3b3b3"/>
   <rect stroke="null" rx="5" id="svg_16" height="22" width="11" y="57.666204" x="90.926944" stroke-width="0" fill="#f7f6f6"/>
   <rect rx="2" stroke="null" id="svg_13" height="15.342508" width="23.287736" y="67.551163" x="85.047475" stroke-width="0" fill="#b3b3b3"/>
  </g>
 </g>
</svg>